<?xml version="1.0" encoding="UTF-8" standalone="no"?>
<svg xmlns:xlink="http://www.w3.org/1999/xlink" height="298.0px" width="298.0px" xmlns="http://www.w3.org/2000/svg">
  <g transform="matrix(1.0, 0.0, 0.0, 1.0, -214.35, -27.4)">
    <path d="M349.5 82.25 L339.05 92.35 Q332.2 87.0 323.15 87.0 316.8 87.0 311.55 89.65 L310.45 84.25 Q307.2 67.45 306.2 57.4 305.15 46.6 306.1 38.35 332.45 27.4 363.35 27.4 405.3 27.4 438.95 47.6 411.8 43.9 384.4 57.3 364.95 66.8 349.5 82.25" fill="#ff4fff" fill-rule="evenodd" stroke="none"/>
    <path d="M341.6 128.25 Q347.1 122.2 347.85 114.65 362.15 117.45 376.5 121.5 404.35 129.45 423.65 137.85 437.55 143.9 459.6 156.25 L463.05 158.2 Q478.1 166.9 488.1 175.85 502.05 188.25 510.0 204.1 502.2 248.25 468.7 281.75 443.15 307.3 411.45 317.9 401.0 301.85 382.95 266.1 L377.5 255.2 Q359.1 218.15 344.1 184.55 332.8 159.25 324.9 136.55 334.85 135.7 341.6 128.25" fill="#ffb426" fill-rule="evenodd" stroke="none"/>
    <path d="M224.9 120.15 Q242.45 108.6 273.5 108.25 285.85 108.15 297.45 108.65 296.95 110.7 296.8 112.95 296.25 122.25 302.05 129.4 L301.5 130.0 Q286.1 147.1 276.7 161.35 257.7 190.3 251.0 221.0 248.5 232.45 249.5 247.95 250.45 262.9 254.4 278.1 214.35 235.55 214.35 176.4 214.35 146.1 224.9 120.15" fill="#3aefff" fill-rule="evenodd" stroke="none"/>
    <path d="M468.7 71.05 Q512.35 114.7 512.35 176.4 512.35 238.1 468.7 281.75 425.05 325.4 363.35 325.4 301.6 325.4 257.95 281.75 214.35 238.1 214.35 176.4 214.35 114.7 257.95 71.05 301.6 27.4 363.35 27.4 425.05 27.4 468.7 71.05" fill="url(#gradient0)" fill-rule="evenodd" stroke="none"/>
    <path d="M468.7 71.05 Q512.35 114.7 512.35 176.4 512.35 238.1 468.7 281.75 425.05 325.4 363.35 325.4 301.6 325.4 257.95 281.75 214.35 238.1 214.35 176.4 214.35 114.7 257.95 71.05 301.6 27.4 363.35 27.4 425.05 27.4 468.7 71.05 Z" fill="none" stroke="#cccccc" stroke-linecap="round" stroke-linejoin="round" stroke-width="0.05"/>
  </g>
  <defs>
    <radialGradient cx="0" cy="0" gradientTransform="matrix(0.2784, 0.0, 0.0, 0.2784, 314.95, 116.0)" gradientUnits="userSpaceOnUse" id="gradient0" r="819.2" spreadMethod="pad">
      <stop offset="0.0" stop-color="#ffffff" stop-opacity="0.0"/>
      <stop offset="0.6039215686274509" stop-color="#969696" stop-opacity="0.14117648"/>
      <stop offset="1.0" stop-color="#000000" stop-opacity="0.47058824"/>
    </radialGradient>
  </defs>
</svg>
