<?xml version="1.0" encoding="UTF-8" standalone="no"?>
<svg
   xmlns:dc="http://purl.org/dc/elements/1.1/"
   xmlns:cc="http://creativecommons.org/ns#"
   xmlns:rdf="http://www.w3.org/1999/02/22-rdf-syntax-ns#"
   xmlns:svg="http://www.w3.org/2000/svg"
   xmlns="http://www.w3.org/2000/svg"
   xmlns:xlink="http://www.w3.org/1999/xlink"
   xmlns:sodipodi="http://sodipodi.sourceforge.net/DTD/sodipodi-0.dtd"
   xmlns:inkscape="http://www.inkscape.org/namespaces/inkscape"
   height="512"
   width="512"
   version="1.1"
   id="svg125"
   sodipodi:docname="plane_all_n.svg"
   inkscape:version="0.92.4 (5da689c313, 2019-01-14)"
   viewBox="0 0 2048 2048"
   inkscape:export-filename="/home/nik/public_html/astro-simulations/lunar-phase-simulator/img/plane.svg.png"
   inkscape:export-xdpi="96"
   inkscape:export-ydpi="96">
  <metadata
     id="metadata129">
    <rdf:RDF>
      <cc:Work
         rdf:about="">
        <dc:format>image/svg+xml</dc:format>
        <dc:type
           rdf:resource="http://purl.org/dc/dcmitype/StillImage" />
        <dc:title />
      </cc:Work>
    </rdf:RDF>
  </metadata>
  <sodipodi:namedview
     pagecolor="#ffffff"
     bordercolor="#666666"
     borderopacity="1"
     objecttolerance="10"
     gridtolerance="10"
     guidetolerance="10"
     inkscape:pageopacity="0"
     inkscape:pageshadow="2"
     inkscape:window-width="2560"
     inkscape:window-height="1380"
     id="namedview127"
     showgrid="false"
     inkscape:zoom="0.7071068"
     inkscape:cx="-433.45747"
     inkscape:cy="69.718997"
     inkscape:window-x="0"
     inkscape:window-y="31"
     inkscape:window-maximized="1"
     inkscape:current-layer="svg125" />
  <g
     transform="matrix(10.242556,0,0,10.24,1023.7443,1024)"
     id="g113">
    <use
       height="200"
       transform="translate(-99.95,-100)"
       width="199.95"
       xlink:href="#shape0"
       id="use111"
       x="0"
       y="0" />
  </g>
  <defs
     id="defs123">
    <g
       id="shape0"
       transform="translate(99.95,100)">
      <path
         d="M 70.7,-70.75 Q 100,-41.45 100,0 100,41.4 70.7,70.7 L 64,76.9 Q 36.8,100 0.05,100 -32.15,100 -57,82.35 -64.15,77.25 -70.7,70.7 -100,41.4 -99.95,0 -100,-41.45 -70.7,-70.75 -64.15,-77.3 -57,-82.35 -32.15,-100 0.05,-100 q 36.75,0 63.95,23.1 3.45,2.9 6.7,6.15"
         id="path115"
         inkscape:connector-curvature="0"
         style="fill:url(#gradient0);fill-rule:evenodd;stroke:none" />
    </g>
    <radialGradient
       cx="0"
       cy="0"
       gradientTransform="scale(0.1238)"
       gradientUnits="userSpaceOnUse"
       id="gradient0"
       r="819.20001"
       spreadMethod="pad">
      <stop
         offset="0.0"
         stop-color="#51c451"
         id="stop118" />
      <stop
         offset="1.0"
         stop-color="#3aa53a"
         id="stop120" />
    </radialGradient>
  </defs>
  <g
     aria-label="N"
     transform="matrix(4,0,0,4,-110.375,-64.083261)"
     style="font-style:normal;font-variant:normal;font-weight:bold;font-stretch:normal;font-size:32px;line-height:1.25;font-family:'Liberation Sans';-inkscape-font-specification:'Liberation Sans Bold';letter-spacing:0px;word-spacing:0px;fill:#000000;fill-opacity:1;stroke:none"
     id="flowRoot4754">
    <path
       d="m 291.59375,87.648283 -19.1875,-33.90625 q 0.5625,4.9375 0.5625,7.9375 v 25.96875 h -8.1875 v -44.03125 h 10.53125 l 19.46875,34.1875 q -0.5625,-4.71875 -0.5625,-8.59375 v -25.59375 h 8.1875 v 44.03125 z"
       style="font-size:64px;fill:#ffffff"
       id="path4792"
       inkscape:connector-curvature="0" />
  </g>
  <g
     aria-label="N"
     transform="matrix(4,0,0,4,-921.625,761.46936)"
     style="font-style:normal;font-variant:normal;font-weight:bold;font-stretch:normal;font-size:32px;line-height:1.25;font-family:'Liberation Sans';-inkscape-font-specification:'Liberation Sans Bold';letter-spacing:0px;word-spacing:0px;fill:#000000;fill-opacity:1;stroke:none"
     id="flowRoot4754-5">
    <path
       d="m 291.59375,87.648283 -19.1875,-33.90625 q 0.5625,4.9375 0.5625,7.9375 v 25.96875 h -8.1875 v -44.03125 h 10.53125 l 19.46875,34.1875 q -0.5625,-4.71875 -0.5625,-8.59375 v -25.59375 h 8.1875 v 44.03125 z"
       style="font-size:64px;fill:#ffffff"
       id="path4792-9"
       inkscape:connector-curvature="0" />
  </g>
  <g
     aria-label="N"
     transform="matrix(4,0,0,4,733.44574,761.46936)"
     style="font-style:normal;font-variant:normal;font-weight:bold;font-stretch:normal;font-size:32px;line-height:1.25;font-family:'Liberation Sans';-inkscape-font-specification:'Liberation Sans Bold';letter-spacing:0px;word-spacing:0px;fill:#000000;fill-opacity:1;stroke:none"
     id="flowRoot4754-4">
    <path
       d="m 291.59375,87.648283 -19.1875,-33.90625 q 0.5625,4.9375 0.5625,7.9375 v 25.96875 h -8.1875 v -44.03125 h 10.53125 l 19.46875,34.1875 q -0.5625,-4.71875 -0.5625,-8.59375 v -25.59375 h 8.1875 v 44.03125 z"
       style="font-size:64px;fill:#ffffff"
       id="path4792-6"
       inkscape:connector-curvature="0" />
  </g>
  <g
     aria-label="N"
     transform="matrix(4,0,0,4,-110.65599,1578.6657)"
     style="font-style:normal;font-variant:normal;font-weight:bold;font-stretch:normal;font-size:32px;line-height:1.25;font-family:'Liberation Sans';-inkscape-font-specification:'Liberation Sans Bold';letter-spacing:0px;word-spacing:0px;fill:#000000;fill-opacity:1;stroke:none"
     id="flowRoot4754-9">
    <path
       d="m 291.59375,87.648283 -19.1875,-33.90625 q 0.5625,4.9375 0.5625,7.9375 v 25.96875 h -8.1875 v -44.03125 h 10.53125 l 19.46875,34.1875 q -0.5625,-4.71875 -0.5625,-8.59375 v -25.59375 h 8.1875 v 44.03125 z"
       style="font-size:64px;fill:#ffffff"
       id="path4792-2"
       inkscape:connector-curvature="0" />
  </g>
</svg>
