<?xml version="1.0" encoding="UTF-8" standalone="no"?>
<svg
   xmlns:dc="http://purl.org/dc/elements/1.1/"
   xmlns:cc="http://creativecommons.org/ns#"
   xmlns:rdf="http://www.w3.org/1999/02/22-rdf-syntax-ns#"
   xmlns:svg="http://www.w3.org/2000/svg"
   xmlns="http://www.w3.org/2000/svg"
   xmlns:xlink="http://www.w3.org/1999/xlink"
   xmlns:sodipodi="http://sodipodi.sourceforge.net/DTD/sodipodi-0.dtd"
   xmlns:inkscape="http://www.inkscape.org/namespaces/inkscape"
   height="512"
   width="512"
   version="1.1"
   id="svg125"
   sodipodi:docname="plane.svg"
   inkscape:version="0.92.3 (2405546, 2018-03-11)"
   viewBox="0 0 2048 2048"
   inkscape:export-filename="/home/nik/public_html/astro-simulations/lunar-phase-simulator/img/plane.svg.png"
   inkscape:export-xdpi="96"
   inkscape:export-ydpi="96">
  <metadata
     id="metadata129">
    <rdf:RDF>
      <cc:Work
         rdf:about="">
        <dc:format>image/svg+xml</dc:format>
        <dc:type
           rdf:resource="http://purl.org/dc/dcmitype/StillImage" />
        <dc:title></dc:title>
      </cc:Work>
    </rdf:RDF>
  </metadata>
  <sodipodi:namedview
     pagecolor="#ffffff"
     bordercolor="#666666"
     borderopacity="1"
     objecttolerance="10"
     gridtolerance="10"
     guidetolerance="10"
     inkscape:pageopacity="0"
     inkscape:pageshadow="2"
     inkscape:window-width="1967"
     inkscape:window-height="1236"
     id="namedview127"
     showgrid="false"
     inkscape:zoom="1.4142136"
     inkscape:cx="70.517825"
     inkscape:cy="249.23241"
     inkscape:window-x="194"
     inkscape:window-y="70"
     inkscape:window-maximized="0"
     inkscape:current-layer="svg125" />
  <g
     transform="matrix(10.242556,0,0,10.24,1023.7443,1024)"
     id="g113">
    <use
       height="200"
       transform="translate(-99.95,-100)"
       width="199.95"
       xlink:href="#shape0"
       id="use111"
       x="0"
       y="0" />
  </g>
  <defs
     id="defs123">
    <g
       id="shape0"
       transform="translate(99.95,100)">
      <path
         d="M 70.7,-70.75 Q 100,-41.45 100,0 100,41.4 70.7,70.7 L 64,76.9 Q 36.8,100 0.05,100 -32.15,100 -57,82.35 -64.15,77.25 -70.7,70.7 -100,41.4 -99.95,0 -100,-41.45 -70.7,-70.75 -64.15,-77.3 -57,-82.35 -32.15,-100 0.05,-100 q 36.75,0 63.95,23.1 3.45,2.9 6.7,6.15"
         id="path115"
         inkscape:connector-curvature="0"
         style="fill:url(#gradient0);fill-rule:evenodd;stroke:none" />
    </g>
    <radialGradient
       cx="0"
       cy="0"
       gradientTransform="scale(0.1238)"
       gradientUnits="userSpaceOnUse"
       id="gradient0"
       r="819.20001"
       spreadMethod="pad">
      <stop
         offset="0.0"
         stop-color="#51c451"
         id="stop118" />
      <stop
         offset="1.0"
         stop-color="#3aa53a"
         id="stop120" />
    </radialGradient>
  </defs>
  <g
     aria-label="N"
     transform="matrix(4,0,0,4,-110.375,-64.083261)"
     style="font-style:normal;font-variant:normal;font-weight:bold;font-stretch:normal;font-size:32px;line-height:1.25;font-family:'Liberation Sans';-inkscape-font-specification:'Liberation Sans Bold';letter-spacing:0px;word-spacing:0px;fill:#000000;fill-opacity:1;stroke:none"
     id="flowRoot4754">
    <path
       d="m 291.59375,87.648283 -19.1875,-33.90625 q 0.5625,4.9375 0.5625,7.9375 v 25.96875 h -8.1875 v -44.03125 h 10.53125 l 19.46875,34.1875 q -0.5625,-4.71875 -0.5625,-8.59375 v -25.59375 h 8.1875 v 44.03125 z"
       style="font-size:64px;fill:#ffffff"
       id="path4792"
       inkscape:connector-curvature="0" />
  </g>
  <g
     aria-label="E"
     transform="matrix(4,0,0,4,223.44574,173.46937)"
     style="font-style:normal;font-variant:normal;font-weight:bold;font-stretch:normal;font-size:32px;line-height:1.25;font-family:'Liberation Sans';-inkscape-font-specification:'Liberation Sans Bold';letter-spacing:0px;word-spacing:0px;fill:#000000;fill-opacity:1;stroke:none"
     id="flowRoot4762">
    <path
       d="m 392.28125,234.64828 v -44.03125 h 34.625 v 7.125 H 401.5 v 11.0625 H 425 v 7.125 h -23.5 v 11.59375 h 26.6875 v 7.125 z"
       style="font-size:64px;fill:#ffffff"
       id="path4795" />
  </g>
  <g
     aria-label="S"
     transform="matrix(4,0,0,4,79.9375,26.343146)"
     style="font-style:normal;font-variant:normal;font-weight:bold;font-stretch:normal;font-size:32px;line-height:1.25;font-family:'Liberation Sans';-inkscape-font-specification:'Liberation Sans Bold';letter-spacing:0px;word-spacing:0px;fill:#000000;fill-opacity:1;stroke:none"
     id="flowRoot4770">
    <path
       d="m 255.1875,463.96078 q 0,6.46875 -4.8125,9.90625 -4.78125,3.40625 -14.0625,3.40625 -8.46875,0 -13.28125,-3 -4.8125,-3 -6.1875,-9.09375 l 8.90625,-1.46875 q 0.90625,3.5 3.53125,5.09375 2.625,1.5625 7.28125,1.5625 9.65625,0 9.65625,-5.875 0,-1.875 -1.125,-3.09375 -1.09375,-1.21875 -3.125,-2.03125 -2,-0.8125 -7.71875,-1.96875 -4.9375,-1.15625 -6.875,-1.84375 -1.9375,-0.71875 -3.5,-1.65625 -1.5625,-0.96875 -2.65625,-2.3125 -1.09375,-1.34375 -1.71875,-3.15625 -0.59375,-1.8125 -0.59375,-4.15625 0,-5.96875 4.46875,-9.125 4.5,-3.1875 13.0625,-3.1875 8.1875,0 12.28125,2.5625 4.125,2.5625 5.3125,8.46875 l -8.9375,1.21875 q -0.6875,-2.84375 -2.8125,-4.28125 -2.09375,-1.4375 -6.03125,-1.4375 -8.375,0 -8.375,5.25 0,1.71875 0.875,2.8125 0.90625,1.09375 2.65625,1.875 1.75,0.75 7.09375,1.90625 6.34375,1.34375 9.0625,2.5 2.75,1.125 4.34375,2.65625 1.59375,1.5 2.4375,3.625 0.84375,2.09375 0.84375,4.84375 z"
       style="font-size:64px;fill:#ffffff"
       id="path4789"
       inkscape:connector-curvature="0" />
  </g>
  <g
     aria-label="W"
     transform="matrix(4,0,0,4,8,11.469368)"
     style="font-style:normal;font-variant:normal;font-weight:bold;font-stretch:normal;font-size:32px;line-height:1.25;font-family:'Liberation Sans';-inkscape-font-specification:'Liberation Sans Bold';letter-spacing:0px;word-spacing:0px;fill:#000000;fill-opacity:1;stroke:none"
     id="flowRoot4778">
    <path
       d="M 69.96875,275.14828 H 59.03125 L 53.0625,249.67953 q -1.09375,-4.5 -1.84375,-9.40625 -0.75,4.09375 -1.21875,6.25 -0.46875,2.125 -6.65625,28.625 H 32.40625 L 21.0625,231.11703 h 9.34375 l 6.375,28.4375 1.4375,6.875 q 0.875,-4.34375 1.6875,-8.28125 0.84375,-3.96875 6.25,-27.03125 h 10.3125 l 5.5625,23.4375 q 0.65625,2.625 2.21875,11.875 l 0.78125,-3.625 1.65625,-7.1875 5.3125,-24.5 h 9.34375 z"
       style="font-size:64px;fill:#ffffff"
       id="path4786" />
  </g>
</svg>
