<?xml version="1.0" encoding="UTF-8" standalone="no"?>
<svg xmlns:xlink="http://www.w3.org/1999/xlink" height="51.05px" width="20.0px" xmlns="http://www.w3.org/2000/svg">
  <g transform="matrix(1.0, 0.0, 0.0, 1.0, 10.0, 50.1)">
    <use height="51.05" transform="matrix(1.0, 0.0, 0.0, 1.0, -10.0, -50.1)" width="20.0" xlink:href="#shape0"/>
  </g>
  <defs>
    <g id="shape0" transform="matrix(1.0, 0.0, 0.0, 1.0, 10.0, 50.1)">
      <path d="M3.25 -40.55 Q1.8 -39.05 -0.25 -39.05 -2.35 -39.05 -3.8 -40.55 -5.25 -42.05 -5.25 -44.1 -5.25 -46.2 -3.8 -47.65 -2.35 -49.15 -0.25 -49.1 1.8 -49.15 3.25 -47.65 4.75 -46.2 4.75 -44.1 4.75 -42.05 3.25 -40.55" fill="#ffffff" fill-rule="evenodd" stroke="none"/>
      <path d="M1.15 -33.0 L9.0 -29.25 M3.25 -40.55 Q1.8 -39.05 -0.25 -39.05 -2.35 -39.05 -3.8 -40.55 -5.25 -42.05 -5.25 -44.1 -5.25 -46.2 -3.8 -47.65 -2.35 -49.15 -0.25 -49.1 1.8 -49.15 3.25 -47.65 4.75 -46.2 4.75 -44.1 4.75 -42.05 3.25 -40.55 M-0.25 -33.0 L-9.0 -29.25 M-0.25 -22.0 L7.65 -0.05 M-7.85 -0.05 L-0.35 -22.35 -0.25 -22.0" fill="none" stroke="#000000" stroke-linecap="round" stroke-linejoin="round" stroke-width="2.0"/>
      <path d="M-0.25 -36.85 L-0.25 -33.0 -0.25 -22.0" fill="none" stroke="#000000" stroke-linecap="round" stroke-linejoin="round" stroke-width="2.0"/>
    </g>
  </defs>
</svg>
