<?xml version="1.0" encoding="UTF-8" standalone="no"?>
<svg
   xmlns:dc="http://purl.org/dc/elements/1.1/"
   xmlns:cc="http://creativecommons.org/ns#"
   xmlns:rdf="http://www.w3.org/1999/02/22-rdf-syntax-ns#"
   xmlns:svg="http://www.w3.org/2000/svg"
   xmlns="http://www.w3.org/2000/svg"
   xmlns:xlink="http://www.w3.org/1999/xlink"
   xmlns:sodipodi="http://sodipodi.sourceforge.net/DTD/sodipodi-0.dtd"
   xmlns:inkscape="http://www.inkscape.org/namespaces/inkscape"
   height="32"
   width="16"
   version="1.1"
   id="svg274"
   sodipodi:docname="stickfigure.svg"
   inkscape:version="0.92.3 (2405546, 2018-03-11)">
  <metadata
     id="metadata278">
    <rdf:RDF>
      <cc:Work
         rdf:about="">
        <dc:format>image/svg+xml</dc:format>
        <dc:type
           rdf:resource="http://purl.org/dc/dcmitype/StillImage" />
        <dc:title></dc:title>
      </cc:Work>
    </rdf:RDF>
  </metadata>
  <sodipodi:namedview
     pagecolor="#ffffff"
     bordercolor="#666666"
     borderopacity="1"
     objecttolerance="10"
     gridtolerance="10"
     guidetolerance="10"
     inkscape:pageopacity="0"
     inkscape:pageshadow="2"
     inkscape:window-width="1648"
     inkscape:window-height="832"
     id="namedview276"
     showgrid="false"
     inkscape:zoom="7.707954"
     inkscape:cx="24.71803"
     inkscape:cy="17.93599"
     inkscape:window-x="506"
     inkscape:window-y="322"
     inkscape:window-maximized="0"
     inkscape:current-layer="svg274" />
  <g
     transform="matrix(1.4771383,0,0,1.4771383,8.0001701,30.516413)"
     id="g263">
    <use
       height="21.65"
       transform="translate(-4.6,-20.65)"
       width="9.1999998"
       xlink:href="#shape0"
       id="use261"
       x="0"
       y="0" />
  </g>
  <defs
     id="defs272">
    <g
       id="shape0"
       transform="translate(4.6,20.65)">
      <path
         d="m 1.3,-16.2 q -0.6,0.55 -1.4,0.6 -0.85,-0.05 -1.4,-0.6 -0.6,-0.6 -0.6,-1.45 0,-0.85 0.6,-1.4 0.55,-0.6 1.4,-0.6 0.8,0 1.4,0.6 0.6,0.55 0.6,1.4 0,0.85 -0.6,1.45"
         id="path265"
         inkscape:connector-curvature="0"
         style="fill:#ffffff;fill-rule:evenodd;stroke:none" />
      <path
         d="m 1.3,-16.2 q -0.6,0.55 -1.4,0.6 -0.85,-0.05 -1.4,-0.6 -0.6,-0.6 -0.6,-1.45 0,-0.85 0.6,-1.4 0.55,-0.6 1.4,-0.6 0.8,0 1.4,0.6 0.6,0.55 0.6,1.4 0,0.85 -0.6,1.45 m -0.85,3 3.15,1.5 m -3.7,-1.5 -3.5,1.5 m 3.5,2.9 3.15,8.8 m -6.2,0 3,-8.95 0.05,0.15"
         id="path267"
         inkscape:connector-curvature="0"
         style="fill:none;stroke:#333333;stroke-width:2;stroke-linecap:round;stroke-linejoin:round" />
      <path
         d="m -0.1,-14.75 v 1.55 4.4"
         id="path269"
         inkscape:connector-curvature="0"
         style="fill:none;stroke:#333333;stroke-width:2;stroke-linecap:round;stroke-linejoin:round" />
    </g>
  </defs>
</svg>
