<?xml version="1.0" encoding="UTF-8" standalone="no"?>
<svg
   xmlns:dc="http://purl.org/dc/elements/1.1/"
   xmlns:cc="http://creativecommons.org/ns#"
   xmlns:rdf="http://www.w3.org/1999/02/22-rdf-syntax-ns#"
   xmlns:svg="http://www.w3.org/2000/svg"
   xmlns="http://www.w3.org/2000/svg"
   xmlns:xlink="http://www.w3.org/1999/xlink"
   xmlns:sodipodi="http://sodipodi.sourceforge.net/DTD/sodipodi-0.dtd"
   xmlns:inkscape="http://www.inkscape.org/namespaces/inkscape"
   height="583.0px"
   width="583.0px"
   version="1.1"
   id="svg16"
   sodipodi:docname="earth.svg"
   inkscape:version="0.92.3 (2405546, 2018-03-11)">
  <metadata
     id="metadata22">
    <rdf:RDF>
      <cc:Work
         rdf:about="">
        <dc:format>image/svg+xml</dc:format>
        <dc:type
           rdf:resource="http://purl.org/dc/dcmitype/StillImage" />
      </cc:Work>
    </rdf:RDF>
  </metadata>
  <defs
     id="defs20">
    <linearGradient
       inkscape:collect="always"
       id="linearGradient864">
      <stop
         style="stop-color:#ffffff;stop-opacity:1"
         offset="0"
         id="stop860" />
      <stop
         style="stop-color:#5ea233;stop-opacity:1"
         offset="1"
         id="stop862" />
    </linearGradient>
    <linearGradient
       inkscape:collect="always"
       id="linearGradient838">
      <stop
         style="stop-color:#3980f3;stop-opacity:1"
         offset="0"
         id="stop834" />
      <stop
         style="stop-color:#0a46a7;stop-opacity:1"
         offset="1"
         id="stop836" />
    </linearGradient>
    <radialGradient
       inkscape:collect="always"
       xlink:href="#linearGradient838"
       id="radialGradient840"
       cx="342.91266"
       cy="170.72879"
       fx="342.91266"
       fy="170.72879"
       r="123.19634"
       gradientTransform="matrix(2.3694778,0,0,2.3503935,-521.2109,-110.7499)"
       gradientUnits="userSpaceOnUse" />
    <radialGradient
       inkscape:collect="always"
       xlink:href="#linearGradient864"
       id="radialGradient866"
       cx="21.347132"
       cy="21.638762"
       fx="21.347132"
       fy="21.638762"
       r="266.80287"
       gradientTransform="matrix(0.85026402,-0.01307618,0.01241714,0.80741108,2.9277421,4.446526)"
       gradientUnits="userSpaceOnUse" />
  </defs>
  <sodipodi:namedview
     pagecolor="#ffffff"
     bordercolor="#666666"
     borderopacity="1"
     objecttolerance="10"
     gridtolerance="10"
     guidetolerance="10"
     inkscape:pageopacity="0"
     inkscape:pageshadow="2"
     inkscape:window-width="2560"
     inkscape:window-height="1380"
     id="namedview18"
     showgrid="false"
     inkscape:zoom="2.0617496"
     inkscape:cx="293.68261"
     inkscape:cy="272.099"
     inkscape:window-x="0"
     inkscape:window-y="31"
     inkscape:window-maximized="1"
     inkscape:current-layer="svg16" />
  <ellipse
     style="fill:url(#radialGradient840);fill-opacity:1;fill-rule:nonzero;stroke-width:2.38349295"
     id="path24"
     cx="291.31299"
     cy="290.52994"
     rx="291.91101"
     ry="289.55991" />
  <g
     transform="translate(291.01498,289.98502)"
     id="g14"
     style="opacity:1;fill:url(#radialGradient866);fill-opacity:1;stroke:#5ea233;stroke-opacity:1">
    <path
       d="M 85.5,-174.5 H 86 q 0.5,1.65 0.3,3.5 -0.05,0.7 -0.95,1.3 -0.6,0.45 -1.35,0.45 l -19.5,0.25 -1.45,0.2 -0.55,0.1 q -4.4,0.45 -8.5,1.7 0.5,2.3 3.5,2.95 l 2.6,0.85 0.85,0.35 q 4.4,1.2 6.1,5.3 0.75,1.75 0.6,4.55 -0.15,3.5 0.3,6.95 0.05,0.3 0.45,0.65 0.65,0.55 2.1,0.8 1.7,0.3 2.85,1.25 l 0.45,0.85 q 0.2,1.75 0,3.5 l -0.35,0.95 q -0.85,1.4 -2.45,1.3 l -1.05,0.15 -6.35,1.55 -0.75,0.4 q -1.5,1.35 -1.05,4.2 l 0.4,2.4 q 0.35,2.7 1.05,5.1 0.65,2.15 -0.3,3.65 l -1.1,1.1 q -1.15,0.9 -2.85,0.75 -3.45,-0.3 -3.7,2.95 -0.15,1.6 0.55,2.15 l 0.45,0.85 0.25,3 q 0.05,2 -2.05,1.8 l -1.5,0.05 q -2.6,0.3 -5.05,-0.05 l -0.9,0.25 q -0.55,0.45 -1.55,0.5 l -2.6,0.65 q -0.65,0.3 -1.4,0.25 l -1,-0.05 -0.1,-0.05 q -1.6,-0.25 -2.6,-1.1 l -0.7,-0.45 -8.05,-3.9 -0.55,-0.4 q -2,-1.65 -4.45,-2.15 l -1.1,-0.2 -8.45,-0.6 q -4.4,0.25 -8.5,-0.65 l -1.5,-0.3 q -2.7,-0.45 -5.45,-1.25 -2.3,-0.7 -4.1,-2.25 l -1.2,-1.45 -0.7,-0.7 q -1.15,-0.8 -2.55,-0.9 -3,-0.25 -5.1,1.85 l -0.85,0.65 q -1.6,1.05 -2.85,2.7 l -0.55,0.5 -0.8,0.5 -0.85,0.3 -3.05,0.25 -2.45,0.15 q -7.85,-0.3 -14.95,1.65 l -1.05,0.4 q -3,1.4 -6.5,1.25 h -1 q -1.85,0.1 -3.4,0.95 -1.85,0.95 -0.55,2.25 1.05,1.1 2.35,1.75 l 4.1,1.8 q 4.55,1.85 9.55,0.6 l 0.95,-0.15 q 2.65,-0.4 4.7,0.75 0.55,0.3 1.25,0.45 l 1,0.4 q 1.2,0.85 2.4,1.3 l 0.7,0.65 q 0.75,1.2 0.6,3.5 l -0.15,7 -0.25,0.65 -0.5,0.7 -0.75,0.65 -3,1.5 v 0.6 l 1.5,0.05 q 2.45,0.15 4.45,-0.75 l 1.65,-0.65 q 3.75,-1.15 3.85,-5.25 l 0.25,-1.95 q 0.95,-4.5 5.3,-6.05 l 7.5,-2.95 1.45,-0.65 q 2.05,-1 4.55,-1.35 3.1,-0.45 5.9,-1.75 l 1.15,-0.35 q 4.6,-0.65 8.9,0.2 l 1.1,0.2 1.85,0.45 q 2.95,0.95 6.1,0.95 l 1.35,0.45 q 3.15,2.3 6.7,4.2 1.95,1 4.45,0.65 0.5,-0.05 0.7,-0.3 0.45,-0.6 1.8,-0.4 2.8,0.35 4.55,1.05 2.05,0.8 2.35,3.1 0.1,0.75 0.35,1.4 0.25,0.85 0.9,1.05 1.85,0.55 3.85,0.65 1.1,0.1 1.6,-1.05 0.8,-1.8 2.9,-3 l 0.9,-0.65 q 0.95,-0.85 2,0.2 l 0.65,0.9 q 0.45,0.75 1.15,1.05 2.45,1.05 3.15,-1.1 l 0.3,-0.9 0.25,-0.6 q 0.75,-1.65 1.5,-2.55 l 0.95,-1.45 0.4,-0.65 q 1.55,-1.3 2.1,-3.35 l 0.7,0.4 0.85,0.35 1.3,1.15 2.9,4.1 0.8,1.7 0.3,1.85 q 0.05,1 0.4,1.95 1.7,4.45 1.3,9.55 -0.1,1.05 -0.6,1.9 -0.6,1 -0.65,2.1 -0.15,1.85 -0.8,3.45 -0.9,2.15 -1.1,4.55 v 0.5 q -0.25,2.5 -0.1,5 0.4,5.65 1.8,10 1,3.25 2.5,6.05 l 1.65,3.4 4,8.5 0.25,0.6 q 0.8,2.05 0.9,4.45 l 0.05,2 q 0.2,2.5 0,5 l -0.05,1.5 q 0.05,1.9 -0.75,3.5 l -0.85,2.05 -0.35,0.85 -0.65,1.2 -0.9,1.15 q -3.05,3 -3.85,6.7 -0.65,2.85 -0.6,6.05 0.05,2.95 0.9,5.45 l 0.4,1.6 q 0.15,1.55 1.05,2.85 1.4,2.1 1.45,5.1 0.1,4.9 -3.25,7.3 l -1.2,0.9 -0.8,0.55 Q 74.55,19.6 72,20.4 l -2.95,0.75 -1.05,0.1 q -3.5,0.15 -6.45,1.85 -2.5,1.5 -5.55,1.2 -1.35,-0.15 -1.7,0.6 l -0.9,0.95 -1.25,0.85 -0.8,0.6 q -0.6,0.45 -0.9,0.95 L 49,31 l -0.6,0.9 -0.65,0.75 -0.5,0.7 -0.55,0.8 -1.5,1.3 q -1.5,0.85 -2.8,1.95 l -0.75,0.75 -0.8,0.65 -1,0.95 q -1,1.2 -1.9,2.7 L 37.5,43 q -1.55,1.4 -2.15,3.45 L 35,47 q -2.45,2.35 -6,1.85 l -5.5,-0.55 -1,-0.25 -4,-1.6 Q 18,46.25 17.85,45.85 17.4,44.65 16,44.55 l -0.95,-0.2 Q 12,43.35 8.95,44.4 4.1,46.1 -1,47 l -4.5,0.25 -0.55,-0.05 -1.4,-0.35 -8,-1.95 -1.05,-0.4 q -1.75,-0.8 -3.5,-0.8 -2.45,-0.05 -4.5,-1.25 l -1.55,-0.8 -0.75,-0.4 -3.6,-3.35 q -1.55,-1.7 -2.25,-3.85 L -32.8,33.5 q -0.3,-3.6 0.35,-7 l 0.4,-3 q 0.35,-5.1 -1.5,-9.5 l -0.35,-1.05 q -0.35,-1.3 -1.15,-2.4 -2,-2.75 -4.3,-0.4 -1.85,1.95 -3.15,4.35 l -0.35,1.05 q -0.15,0.7 -0.45,1.3 l -0.45,0.8 -0.45,0.75 -0.6,1.2 -2.25,3.85 q -0.7,1.05 -1.7,1.7 -1.95,1.3 -2.9,3.3 -0.35,0.8 -1,1.35 -2.2,1.9 -4.25,4.3 l -1.25,1.2 -1.25,0.85 -1.15,0.8 -5.05,3.9 q -3.6,2.55 -6.35,5.7 -2.6,3.05 -6,5.55 -1.95,1.45 -4.55,1.35 L -93,52.8 h -1.5 l -4.55,-0.6 -1.2,-0.55 q -0.8,-0.6 -2.2,-0.85 -1.9,-0.3 -3.95,-1.45 l -1.2,-0.7 -3.25,-2.35 -1.35,-1.05 -0.65,-0.5 q -1.6,-1 -3.65,-1.35 l -1.9,-0.6 q -2.15,-1.15 -4.6,-1.8 l -1.9,-0.7 -1.15,-0.35 q -1.55,-0.1 -2.5,-1.4 l -0.5,-0.4 -0.75,-0.4 -3.25,-2.1 q -2.4,-1.25 -4.1,-3 l -1.1,-1.35 -0.5,-0.55 -1.6,-1.45 -0.8,-0.6 q -1.35,-0.95 -2.8,-1.8 -0.8,-0.45 -2.55,-0.95 -2.65,-0.7 -5.5,-0.7 L -152.55,25.2 -154,25 q -4.75,0 -8.45,-2.6 l -1.1,-0.8 q -1.8,-1.25 -2.5,-3.1 l -0.25,-1 -0.35,-3 q -0.2,-2.35 1.3,-3.85 l 0.75,-0.75 q 1.15,-1.05 1.65,-2.4 l 0.2,-1 Q -162.85,5 -162,4 l 0.25,-0.5 q 0,-0.95 0.8,-1.4 1.1,-0.6 1.5,-2.1 l 0.65,-1.3 2.8,-3.2 1.1,-0.75 4.95,-1.65 0.85,-0.3 q 2.7,-1.35 5.6,-2.35 l 1,-0.2 13.5,-0.35 10.5,0.6 5.55,-0.4 q 2.6,-0.8 5.45,-1.05 l 1.35,-0.35 q 1.5,-0.75 3.15,-1.1 l 8.45,-1.75 1.05,-0.3 1.5,-0.5 q 4.1,-1 7.95,-2.15 l 1.05,-0.2 q 1.95,-0.25 3.4,-1.8 l 0.75,-0.7 1.7,-1.4 0.8,-0.5 5.45,-3.15 2.85,-1.3 0.55,-0.1 q 1.1,-0.05 1.55,-1.25 l 0.2,-1 q 0,-2.7 -1.6,-5.1 l -1.25,-1.8 q -0.4,-0.6 -0.45,-1.15 -0.45,-3.7 -0.45,-7.45 l -0.2,-5 q -0.45,-5.15 -0.05,-10.5 l 0.05,-0.4 -0.8,-0.1 -1.6,-0.8 -0.9,-0.3 -2.5,-0.25 q -1.65,-0.1 -1.7,1.35 l -0.1,1 -0.25,4 q -0.1,2.6 -1.25,4.6 l -0.4,0.8 -0.6,1.2 q -0.55,1.2 -1.15,1.9 -0.85,1 -2.6,1.3 l -2.45,0.25 q -4.95,0.2 -8.5,3 -3.9,3.1 -3.35,8.45 l 0.35,2.5 q 0.65,4.3 -3.4,5.8 l -1.2,0.45 q -0.65,0.25 -1.4,0.35 -1.2,0.2 -2.25,1.15 -0.25,0.25 -0.75,0.3 -7.8,0.4 -15.05,-0.9 l -2.5,0.2 -2.1,-0.15 -0.8,-0.3 q -2.3,-0.55 -4.5,-1.5 l -3.45,-1.6 q -1.4,-0.65 -2.15,-1.25 l -5.9,-4.6 q -1.45,-1.15 -1.35,-3.45 0.05,-0.75 -0.15,-1.5 l -1.05,-4.5 q -0.4,-1.6 -1.35,-2.25 -0.4,-0.25 -0.5,-0.8 -0.65,-2.75 0.85,-4.95 1,-1.45 3.05,-2.35 2.5,-1.05 4.95,-1.55 l 0.95,-0.2 q 2.4,-0.6 4.5,-1.55 l 4.45,-2.05 q 1.25,-0.55 2.25,-1.65 l 1.3,-1.25 q 0.95,-0.85 1.65,-1.85 l 0.7,-1.15 0.3,-0.9 0.35,-2 q 0.45,-2.75 -0.5,-5 l -0.6,-0.8 q -1.5,-1.25 -1.95,-3.15 l -0.4,-1.05 q -0.85,-1.75 -0.05,-3.8 l 1.1,-1.1 q 1.6,-0.75 1.85,-2.55 l 0.65,-1.55 q 1.35,-1.9 3.65,-3.2 l 1.3,-0.4 q 3.45,-0.4 4.75,-4 0.25,-0.65 0.25,-1.4 l 0.35,-5 q 0.15,-1.75 -0.15,-3.05 l -0.3,-1.95 q -0.3,-3.1 -1.25,-6.05 l -0.25,-0.95 q -0.4,-2.75 -1.75,-5.1 -0.9,-1.5 -3.15,-1.5 -4.4,-0.05 -8.5,1.15 -4.65,1.4 -8.6,4.3 l -1.75,1.3 -5.2,3.8 q -2.15,1.45 -4.4,2.65 l -0.6,0.35 q -3.85,2.75 -8.9,3.7 l -1.05,0.15 q -2.5,0.2 -5,0 l -1,-0.3 q -1.8,-0.95 -4.05,-1.3 l -2.45,-0.35 q -2.75,-0.3 -4.35,1.75 -1.6,2.1 -1.2,4.9 l 0.3,0.85 0.75,0.7 q 2.8,1.6 6.5,1.15 l 3,-0.2 2.25,0.5 q 0.5,0.25 0.9,0.9 1.5,2.25 1.85,4.1 l 0.3,2 0.2,4 q 0,1.75 2.05,2.25 l 1.95,0.3 q 5.95,0.25 11.5,-1.05 1.3,-0.3 1.25,1 l 0.25,0.5 q 0.85,1.05 1.35,2.9 l 0.55,1.2 q 1.5,2.3 3.45,3.65 l 0.65,0.75 q 0.85,1.75 0.45,4 -0.25,1.45 -1.25,2.25 l -1.3,1.15 -3.25,3.25 -0.8,0.6 -0.7,0.5 -0.8,0.6 -1.45,0.95 -0.5,0.2 -2.4,0.3 -6.5,0.65 q -3.7,0.9 -5.95,3.6 -1.25,1.4 -1.1,3.45 l 0.2,1.45 q 0.45,2.1 1.9,3.5 1,1 1.55,2 0.8,1.5 1.05,3.1 0.1,0.45 -0.25,0.85 -1.35,1.6 -3.4,1.8 l -1.5,0.1 -4,-0.1 -4.5,-0.35 -3.6,0.45 -0.9,0.15 q -2.1,-0.15 -3.3,1.25 -0.7,0.8 -1.6,1.45 l -1.65,1.3 -4.55,3.9 -3.6,3.5 -1.3,1.15 q -3.4,2.35 -6.1,5.4 -0.8,0.9 -1.9,0.95 -1.4,0.05 -2.1,-0.8 -1.3,-1.5 -3.9,-1.5 -5.25,0.05 -6.6,4.9 l -0.2,1.05 q -0.25,2.35 -2.7,2.65 l -1.5,0.25 q -3.8,0.9 -3.35,-2.95 0.1,-0.7 0.05,-1.45 -0.2,-2.25 0,-4.5 l 0.05,-0.5 q 0.1,-3.2 1.55,-5.15 l 0.7,-1.35 q 1.2,-3.15 3.2,-5.85 l 0.7,-0.75 0.75,-0.65 0.85,-0.2 q 3.15,0.4 4.75,3.3 l 0.6,0.8 q 0.55,0.55 1.5,0.65 h 1.15 q 2.6,-0.25 3.55,-2.3 0.75,-1.7 0.5,-4.5 -0.45,-5.2 -0.3,-10.5 l 0.15,-0.55 q 0.8,-1.85 0.85,-3.95 l 0.25,-2 q 0.8,-2.85 0.05,-5.9 l -0.55,-0.1 -3.4,0.4 -0.75,0.45 q -1.35,1.35 -2.1,3.55 -0.3,1.05 -1.25,1.2 -1.6,0.25 -2.15,-0.5 -0.8,-1.15 -2.35,-1.15 -5,-0.1 -5.25,5.05 l -0.05,1 -0.15,4.5 q 0,1.7 -0.7,2.35 -0.75,0.65 -2.25,0.25 l -0.7,-0.45 -0.7,-0.8 -0.75,-1.35 -0.4,-1 q -0.85,-2 -0.65,-4.5 0.3,-3.5 1.35,-6.6 0.25,-0.65 0.15,-1.4 -0.4,-2.15 1.1,-3.5 1.75,0.65 2.5,2.5 0.85,-1.75 0.75,-4 l -0.25,-9.5 q 0,-2.55 -0.25,-5 -0.45,-3.85 -2.25,-7 l -0.6,-0.85 -0.75,-0.8 q -2.25,-2.3 -1.7,-5.85 0.4,-2.25 -0.3,-4.05 l -0.3,-0.9 q -0.85,-2.05 -2.05,-3.9 -0.6,-0.95 -0.75,-2.1 l -0.35,-1.15 -0.4,-0.8 -0.85,-1 q -4.1,-3.05 -4.3,-8.1 -0.15,-3.2 1,-5.95 l 0.15,-0.6 q 0.25,-2.05 1.2,-3.95 0.25,-0.5 0.35,-1.05 0.3,-1.35 1.05,-2.5 0.95,-1.45 0.75,-3.45 -0.15,-1.25 -0.9,-2.2 l 0.05,-0.25 q 0.15,-1.35 -0.2,-2.95 -0.1,-0.35 -0.6,-0.55 -2.3,-0.85 -5,-0.75 l -4.55,0.6 q -2.65,0.65 -4.6,-0.65 l -0.75,-0.45 q -0.85,-0.35 -0.4,-1.2 0.55,-1.2 1.85,-2.05 l 0.85,-0.65 0.75,-0.65 0.75,-0.45 1.2,-0.6 0.85,-0.3 1.05,-0.35 q 2.6,-0.85 5.5,-0.75 l 4,-0.25 q 1.4,-0.25 2.3,-1.3 l 1.15,-0.85 q 1.25,-0.7 1.95,-1.6 l 1.45,-1.5 0.7,-0.75 q 2.9,-4.15 6.1,-7.9 l 0.75,-0.75 q 3.75,-3.1 6.75,-6.25 l 0.75,-0.75 q 0.35,-0.4 0.55,-0.9 0.65,-2.1 2.45,-4.1 0.35,-0.4 0.55,-0.9 0.7,-1.95 2.4,-3.65 0.4,-0.35 0.65,-0.85 0.75,-1.7 2.35,-3.15 l 0.65,-0.85 1.3,-2.15 q 0.75,-0.95 1.35,-2.3 l 1.5,-2.75 0.6,-1.2 q 0.25,-0.85 0.85,-1.5 0.65,-0.65 0.55,-1.6 -0.05,-0.6 0.6,-1.25 l 0.4,-0.7 q 0.35,-0.95 0.4,-2.05 l 0.45,-3.5 q 0.45,-2.6 -1.4,-3.65 l -1.2,-0.65 q -2.15,-1.05 -4.3,0 l -1.15,0.7 -5.25,4.1 -1.7,1.5 q -3.35,3.05 -6.25,7.65 l -0.4,0.8 -0.25,0.6 -0.95,2 -0.3,0.9 -0.3,0.6 q -1.25,1.7 -2,3.5 -0.75,1.8 -2.2,3.85 -1.2,1.65 -2.8,2.7 l -1.75,1.75 -0.75,0.75 -1.1,0.85 -2.65,1.65 q -0.3,0.15 -0.7,-0.2 -0.8,-0.7 -0.75,-2.4 0,-1.1 -1.35,-1.1 -1.4,0 -2.5,0.6 l -0.7,-0.55 q 10.95,-14.15 24,-27.4 l 2.15,-2.15 q 13.8,-13.85 28.6,-25.4 l 1.95,2.5 q 2.2,-0.75 4.35,-1.8 l 0.8,-0.45 0.8,-0.4 0.6,-0.25 q 2.45,-1.45 5.45,-1.2 l 4,-0.35 q 2.55,-0.8 5.5,-0.8 l 1.5,-0.15 q 4.7,-0.9 9.2,-2.15 h 0.05 l 0.8,-0.25 1.45,-0.2 9.5,0.25 q 4.25,0.1 8.5,-0.05 2.75,-0.05 5.05,-1 l 0.85,-0.4 q 0.7,-0.3 1.15,-0.8 1.15,-0.6 -0.15,-1.9 -0.4,-0.35 -0.9,-0.55 -2.25,-0.85 -5,-0.65 l -3.5,0.3 -1,0.1 -5,0.4 -1.05,0.15 -1.9,0.3 -1.05,0.15 -5,0.25 -3.55,-0.4 -0.95,-0.15 q -0.1,-1.95 1.4,-2.7 l 1.15,-0.75 2.5,-1.95 q 2.3,-1.5 5.45,-1.25 9.85,0.7 20,0.5 3.15,-0.05 5.45,1.7 l 0.6,0.35 3.45,1.65 v -0.1 h 1 l 10.5,0.65 1.5,0.4 q 2.1,0.65 4.5,0.75 l 1,0.2 5.45,1.8 q 2.5,0.7 4.7,2.05 l 0.75,0.4 1.15,0.7 q 2.4,1.65 4.85,3.7 l 1.75,1.8 1.15,1.35 0.8,0.7 1.5,2 q 0.45,0.8 0.75,2.1 l 1.45,5.5 0.2,1.45 0.25,13 0.15,0.55 q 1.05,2.15 3.6,2 l 0.9,0.15 q 1.55,0.6 4.1,0.45 l 6,0.05 1.05,0.15 1.45,0.3 q 1.9,0.35 4.55,1.3 5.3,1.9 8.8,5.2 l 0.8,0.7 q 2.8,2.55 5.4,6.1 l 0.45,0.55 5.9,6.6 0.7,0.85 q 4.55,5.9 10.85,8.7 l 1.55,0.8 q 1.1,0.7 2.5,1.1 l 2.25,1.05 2.2,1.05 q 1.05,0.35 2,0.9 1.75,1.05 3.65,1.7 4.15,1.5 8.3,3.45 1.45,0.65 3.1,0.55 l 4.6,0.5 1.9,0.35 q 5.45,0.55 10.05,-1.55 0.7,-0.3 1.4,-0.7 2.55,-1.4 4.1,-3.8 l 2,-3.05 q 0.95,-1.45 2.9,-1.7 l 0.6,-0.2 q 1.15,-0.7 2.45,-1 3.2,-0.85 6.35,-2.4 l 0.8,-0.35 1.7,-0.7 q 0.4,-0.15 0.8,-0.45 0.95,-0.8 2.35,-0.75 l 19,-0.8 2,0.3 2.35,0.9 0.65,0.65 m -75,299 3.1,-2.9 q 1.75,-1.7 3.9,-2.65 1.75,-0.8 4,-0.5 l 0.9,-0.15 q 2.35,-1.2 5.1,-1.25 2.25,0 3.9,-2.1 l 0.75,-0.8 0.6,-0.8 q 0.9,-1.35 0.4,-2.9 l -0.4,-0.8 -0.6,-0.8 q -1,-1.15 -2.65,-1.9 -2,-0.9 -3.9,-2.1 l -1.2,-0.65 q -1.1,-0.65 -1.3,-1.7 l -0.2,-1 -0.2,-1.5 -0.35,-5.6 -0.05,-0.9 q -0.2,-3 1,-5.6 0.55,-1.05 0.65,-2.4 l 0.3,-0.85 0.4,-0.8 0.75,-1.9 q 0.65,-2 1.65,-3.9 l 0.8,-1.6 0.35,-0.85 1.35,-2.6 q 0.95,-2.05 1.15,-4.5 0.05,-0.25 0.25,-0.55 0.75,-1 2.05,-1.5 l 2.5,-0.3 q 1,0.1 1.9,0.55 1.55,0.8 1.2,3.3 l -0.3,1.45 q -0.7,2.15 -0.9,4.55 -0.25,3 -2.3,5.1 l -0.7,0.5 q -1,0.3 -1.1,1.4 l -0.2,0.55 -2.7,4.9 -0.35,0.6 Q 29.5,90 29.3,91.05 L 28.8,94 q -0.35,3.05 1.55,4.65 l 0.7,0.8 q 0.75,1.15 1.5,1.5 l 1.35,0.7 1.15,0.4 9.45,0.35 h 0.6 l 2.35,1.2 0.6,0.35 2,0.85 q 2.75,0.8 2.6,-1.8 -0.25,-5.55 -3.2,-9.5 -0.6,-0.85 -0.7,-2.5 L 48.6,90.45 Q 47.4,88.4 48.5,86 l 0.4,-1.05 q 1.25,-4.35 6.55,-3.3 l 1.05,0.05 q 3.4,-0.25 6,1.85 l 0.55,0.3 q 1.65,0.6 1.9,-0.85 l 0.2,-0.95 q 0.7,-1.7 0.2,-4.5 L 64.55,71.5 64.2,70.1 63.4,68.05 61.8,64.1 q -0.9,-1.8 -0.8,-4.6 0,-1.25 0.25,-2.45 0.55,-2.85 1.6,-5.6 l 0.4,-0.8 0.35,-0.75 Q 64,48.25 64,46.5 l -0.25,-0.75 q -0.7,-0.8 -1.1,-1.8 Q 61.9,41.9 62.2,39.5 l 0.05,-1 q -0.1,-3.65 0.8,-7 0.2,-0.75 0.65,-1.35 l 0.6,-0.8 q 0.9,-1.25 2.15,-1.95 l 3,-1.95 0.6,-0.3 0.9,-0.3 2.1,-0.7 0.95,-0.2 q 2.9,-0.3 5.45,0.65 4.4,1.65 9.55,1.2 0.75,-0.05 1.35,-0.5 l 0.8,-0.65 q 1.1,-0.9 0.75,-3.15 -0.35,-2.4 -0.55,-5 Q 91.1,13.15 92.6,10.55 94,8.1 96.1,6.6 97.7,5.4 100,4.45 l 0.75,-0.6 0.45,-0.75 q 1.15,-2.65 0.9,-6.6 -0.1,-1.5 0.1,-3 0.55,-4.8 0.55,-10 l 0.05,-0.55 0.65,-2.45 q 1.65,-5 0.85,-10.45 -0.3,-2 -0.15,-4.05 0.15,-2.3 -0.6,-3.55 l -0.45,-0.95 -0.75,-1.95 -1.15,-2.2 -0.8,-1.3 q -0.9,-1.9 -1.65,-3.95 l -1.6,-5.15 -0.35,-0.85 q -1.25,-2.75 -1.65,-5.6 L 94.8,-61.95 94,-66 l -0.4,-2 -0.3,-0.9 q -1.05,-2.1 -1.45,-4.05 l -0.3,-1.05 -2.05,-5.5 -1.35,-4.05 -0.35,-0.85 -1.9,-4.05 q -2.05,-4.7 -4.5,-8.45 -0.45,-0.65 -0.75,-1.65 l -0.8,-2.15 -0.1,-0.2 -0.75,-1.6 -0.2,-0.4 -2.4,-4.05 -0.7,-1.15 -0.4,-0.8 -0.8,-1.6 -0.65,-0.85 q -1.75,-1.65 -3.9,-2.55 -1.15,-0.5 -1.15,-1.6 l 0.2,-0.8 0.6,-0.5 0.5,-0.4 q 0.8,-1.45 2.3,-2 2.55,-1 5.2,-0.05 2.3,0.85 3.3,3.3 0.85,2 2.15,3.4 l 1.3,1.65 q 0.55,0.75 2.15,0.6 l 5,-0.4 q 0.75,-0.05 1.2,-0.55 0.5,-0.65 1.8,-0.7 1.15,-0.05 2,-1.05 l 0.55,-0.3 3.45,-0.25 9,0.5 4.05,0.9 0.75,0.4 q 1.05,0.75 2.2,0.75 l 0.85,0.25 q 0.4,0.25 0.8,0.4 l 3.85,1.8 1.05,0.4 q 1.05,0.15 1.8,0.8 l 0.8,0.55 q 0.6,0.3 1.25,0.55 l 1.15,0.7 4.1,3.9 1.75,1.8 1.3,1.1 3.9,2.6 q 0.65,0.4 1.4,0.45 3.55,0.35 6.5,-0.8 l 4.55,-1.9 1.45,-0.35 q 1.95,0.05 3.5,-0.75 l 1,-0.25 9.5,1.1 1.4,0.4 q 4.3,1.8 9.05,2.9 1.75,0.35 2.05,1.85 l -0.1,0.65 0.05,0.05 q 1.5,0.4 2.15,1.75 l 0.2,0.6 q 0.5,2.3 -1.7,2.8 l -1.15,0.6 q -1.45,1.35 -3.45,1.3 l -1.05,0.1 q -4.85,1.15 -9.95,1.55 l -9.45,-0.55 -1.1,-0.25 -4.95,-0.45 -3.1,-0.4 -1.4,-0.25 -12.9,0.7 q -0.35,0.05 -0.5,0.8 -0.5,2.05 1.25,2.85 l 0.8,0.45 1.3,1.25 3.1,2.9 q 1.9,1.6 4,2.45 1.55,0.65 3.4,0.95 l 1.6,0.55 1.4,0.7 2.45,0.8 0.75,0.35 0.7,0.5 0.8,0.6 2.1,2.5 0.6,0.8 q 2.9,3.05 4.85,6.75 l 4.75,9.65 3.75,7.85 0.6,1.2 0.9,1.8 0.6,1.2 q 2.5,4.9 6.2,8.9 l 2.8,3.15 q 2.85,3.3 7.2,4.7 1.45,0.45 2.55,-0.2 2.25,-1.4 2.05,-4.65 -0.05,-1.4 -0.65,-2.5 -1.05,-2 -1.25,-4.5 -0.1,-1.6 1.3,-2.45 l 0.8,-0.7 1.7,-1.15 1.45,-0.25 6.5,-0.65 q 1.35,-0.15 1.85,0.35 0.4,0.35 1.15,0.35 h 1.5 l 0.05,0.5 q 1.7,0.9 4,0.75 l 1,0.25 q 2.45,1.05 4.6,2.3 4.2,2.35 7,4.6 0.4,0.35 0.9,0.55 3.6,1.55 6.1,3.95 l 1.25,1.25 1.55,1.95 q 1.55,2.25 2.3,4.35 l 0.65,1.6 0.15,0.95 0.2,7 0.3,1 q 1,1.8 1.75,4.45 0.7,2.75 2.05,5.15 0.5,0.95 1.65,1.55 l 3.4,1.65 q 0.4,0.2 0.6,0.7 0.95,2.3 3.05,2.25 0.5,0 0.95,-0.35 2.25,-1.85 4.2,-3.2 0.6,-0.45 1.35,-0.6 l 1.35,-0.05 q 1.7,0.25 1.9,2.45 l 0.05,0.55 0.75,4.95 q 0.3,2.45 -2.05,2.7 l -1.5,0.1 q -2.75,0.1 -5.05,1.1 -1.3,0.6 -2.25,1.75 l -1.7,1.35 q -1.25,0.6 -1.25,2.5 l -0.05,0.55 q -0.4,1.65 0.1,2.55 l 0.25,0.9 q 0.25,5.05 -3.2,8.3 -1.2,1.1 -1.1,2.7 l -0.35,0.95 q -0.5,0.7 -0.5,2.05 0.1,5.25 0.55,10.45 0.05,0.3 0.6,0.4 2.7,0.45 3.35,-2.35 0.45,-1.95 0.4,-4 -0.05,-2.7 0.75,-5 l 0.3,-1.05 q 0.45,-2.65 2.7,-3.35 1.4,-0.4 1.6,0.9 l 0.5,1.4 0.65,1.2 0.2,0.9 q 0,1.85 0.3,3.55 l 0.35,1.9 L 253,46 q 1.8,0.55 2,-0.95 l 1.1,-0.95 5.55,-6.5 q 0.65,-0.9 1.85,-0.75 l 3.5,0.3 q 1.7,0.1 1.75,1.85 l 0.15,1.05 0.25,0.9 0.15,0.6 0.25,1.9 0.15,1.55 0.2,1.05 q 1.5,4.95 1.75,10.45 0.2,5.4 -0.65,10.5 l -0.7,5 -1.65,12.5 -0.2,2.5 q -0.05,1.3 -0.75,2.6 -0.45,0.9 -0.55,1.9 L 266.9,94 q -0.15,1.95 -1.05,2.85 -0.35,0.4 -0.55,1.1 l -0.85,1.55 q -0.75,1 -0.7,2.5 l -0.3,1.45 q -0.75,1.65 -0.8,3.05 l -0.4,5.05 q -0.25,1.95 -0.25,3.95 1.85,-1 3.05,-2.95 l 0.35,-0.6 q 1.1,-1.85 2.45,-2.7 l 0.65,-0.4 1.1,0.45 q -11.3,27.8 -28.75,53.05 l -1.3,-0.85 -2.25,2.85 -0.65,0.8 -0.8,0.6 -0.8,0.4 -0.6,0.2 -5,1.45 q -4.75,0.9 -7.9,4.75 l -2.9,3.55 q -1.85,2.25 -3.6,4.95 l -0.65,0.9 -0.75,1.15 -0.8,1.3 -1.8,2.65 q -2.55,3.45 -4.65,6.9 -0.8,1.3 -1.75,2.2 -0.4,0.35 -0.65,0.85 -1,1.85 -2.6,3.4 -1.1,1.15 -1.7,2.45 l -0.45,0.8 -1.1,1.6 -0.9,1 -0.85,1.2 q -0.9,1.8 -2.3,3.15 l -0.5,0.95 q -0.55,1.7 -1.95,2.65 -0.4,0.3 -0.55,0.85 -0.35,0.95 -0.55,1.95 l -0.15,0.55 q -0.35,1.25 -1.05,2.2 -13,11.4 -26.75,20.95 l -3.45,-1.05 -0.8,-0.5 q -0.75,-0.6 -1.8,-0.85 l -0.55,-0.1 -4.45,0.15 -2.1,0.5 q -1.75,0.55 -3.35,1.35 -2.25,1.1 -4.65,1.65 l -1.4,0.35 -2.05,0.8 q -1.75,0.85 -4,0.55 -2.9,-0.4 -4.65,0.7 l -1.8,0.9 -1.6,0.65 q -2.9,1.05 -5.3,3.35 l -0.8,0.65 -1.25,0.85 -3.7,2.15 -0.8,0.4 q -2.25,1.2 -4.65,1.6 l -2.4,0.5 -1.6,0.6 -1.45,0.55 -4.55,1.35 -1.35,0.45 q -0.85,0.25 -1.6,0.75 -1.15,0.7 -2.5,0.75 L 93,260 q -1.65,0.85 -3.65,1.7 l -1.3,0.45 -9.05,1.2 -4,0.35 -1,0.1 -6,0.1 q -2.65,-0.15 -4.7,1.3 -0.8,0.55 -1.8,0.65 -1.65,0.15 -2.3,0.9 L 58.5,267 q -2.35,0 -4.55,-0.9 -2.35,-0.95 -5,-1.45 l -1.4,-0.35 -2.65,-1.05 -1.35,-0.45 -0.6,-0.15 q -2.95,-0.75 -3.8,1.9 l -0.25,0.95 q -0.45,3 2.6,4.05 l 1,0.25 q 1.65,0.25 3.25,1.35 0.5,0.35 1.25,0.4 1.65,0.05 3.1,0.75 l 0.9,0.2 7.8,-0.65 1.2,-0.3 q 2.3,-0.65 5.05,-1.9 l 3.45,-1.6 q 2,-0.9 4.5,-0.7 l 3.4,0.5 1.2,0.45 0.9,0.2 9,-0.05 2.05,-0.25 1.45,-0.3 q 1.7,-0.35 1.5,1.1 -0.45,2.5 -3.5,2.25 -1.45,-0.15 -2.65,0.55 l -0.85,0.3 q -0.85,0.2 -1.95,0.95 l -0.6,0.25 q -2.4,0.35 -4.45,1.7 -1.15,0.8 -2.4,1.25 L 75,277 q -0.65,0.6 -2,0.75 -1.7,0.15 -2.7,1 l -0.8,0.2 q -1.65,-0.1 -2.6,0.4 -2.65,1.35 -5.9,1.4 l -0.55,0.1 -2.05,1 -1.3,0.8 -1.3,1.2 -1.15,1.4 q -18.45,3.3 -37.85,4.3 -0.7,-0.65 -1.75,-1.15 l -0.6,-0.25 q -2.65,-0.65 -4.5,-1.5 l -4.4,-1.85 -1.6,-0.6 q -1.7,-0.65 -3.1,-1.4 l -1.3,-0.5 -2.2,-1 L -4,281 q -2.4,0 -4.65,-1.3 l -0.8,-0.35 -1.75,-1.1 -0.7,-0.45 -1.2,-0.65 q -2.35,-1.45 -4.15,-3.4 l -0.65,-0.45 -1.2,-0.6 -0.8,-0.4 q -0.95,-0.6 -2.05,-0.95 l -0.6,-0.25 q -1.95,-0.85 -3.25,-0.35 -1.3,0.5 -1.95,2.35 l -0.4,1.35 q -0.35,1.85 1.1,2 0.3,0.05 0.7,0.4 l 1.6,1.4 0.65,0.45 q 1.85,0.8 3.2,1.6 l 2,1 0.8,0.4 q 0.6,0.3 1.05,0.85 l 2.5,2 q 1.4,0.8 2.55,2.45 0.6,0.9 1.95,1.15 0.55,0.1 0.9,0.5 l 1.45,0.85 1.7,-0.05 q 1.05,-0.25 1.4,0.5 l -3.1,-0.05 h -0.05 q -115.15,-2.65 -197.3,-84.85 -22.55,-22.55 -39.1,-47.55 l 0.65,-0.5 0.65,-0.75 0.8,-0.4 2.6,-0.75 q 2.25,-0.8 4.95,-0.65 l 1.4,0.3 4.55,1.45 q 4.6,1.45 8.6,3.65 l 1.35,0.8 q 1.75,1.05 3.65,1.7 1.7,0.65 3.6,2.5 l 0.55,0.8 q 1.25,2.8 3.3,5.35 l 0.5,0.3 4.5,0.35 q 5.6,0.3 8.65,4.75 l 1.15,1.75 0.45,0.7 0.55,0.8 0.9,1.2 1.75,1.75 1.15,0.7 0.6,0.45 1.05,1.05 0.1,0.1 h 0.05 l 0.2,0.2 1.35,1 q 2.05,1.35 4.15,2.2 l 4.35,1.75 q 0.95,0.4 2.2,1.25 l 1.25,0.85 q 2.25,1.3 5.6,0.9 l 0.85,0.2 q 1.6,1.1 3.65,1.4 0.75,0.1 1.4,0.5 1.85,1.15 4.05,1.5 0.55,0.1 1,0.45 l 2.55,1.9 q 3.05,2.05 4.95,5.55 l 1.15,1.3 q 0.65,0.4 1.2,0.9 2.3,2.15 5.2,2.45 l 1.05,0.2 0.9,0.25 q 4.1,1.15 7.3,4.1 l 4.25,0.25 0.85,0.2 q 3.05,1.85 3.35,5.8 v 1.3 q -0.1,1.45 -0.7,2.7 -1.3,2.6 0.65,4.85 1.65,1.9 4.3,3.75 l 1.15,0.7 q 1.55,0.85 2.9,2.2 3.45,3.55 6.55,5.45 l 0.9,0.65 1.15,0.75 q 2.2,1.3 4.3,2.8 l 2.65,1.8 0.85,0.7 0.75,0.5 q 1.25,0.45 1.85,1.35 0.8,1.2 2,1.3 1.3,0.15 1.15,-1.3 -0.15,-1.25 0.05,-2.5 0.05,-0.5 0.4,-0.55 4,-0.85 7.35,0.65 l 0.55,0.15 q 1.2,-0.05 2,0.75 0.5,0.5 1.05,0.55 1.7,0.1 2.95,0.95 1.15,0.7 2.5,0.75 l 0.55,0.1 q 0.95,0.4 1.75,0.95 2,1.25 4.65,2.3 1.35,0.5 3,1.5 l 0.6,0.25 0.85,0.35 3.05,1 2.55,0.85 1,0.45 3.5,1.1 1.4,0.55 4.6,2.35 2.5,1 4.95,0.35 1.05,-0.15 8,-0.2 2.45,-0.25 1.55,-0.35 2.1,-0.7 0.5,-0.4 q 0.35,-0.6 1.4,-0.4 l 0.8,-0.15 q 0.75,-0.7 1.7,-0.85 l 1.4,-0.55 1.65,-1.25 q 0.45,-0.35 0.55,-0.7 0.4,-1.4 0.4,-2.9 l -0.2,-0.9 q -1.1,-2.2 -3.3,-2.55 -2.85,-0.5 -4.65,1.85 -0.9,1.1 -2.35,0.9 l -1,-0.05 q -0.95,0 -1.45,-0.8 l -0.65,-0.9 q -0.4,-0.55 -0.95,-0.65 -2.5,-0.45 -3.9,-1.45 -0.3,-0.2 -0.6,-0.25 l -5.95,-0.85 -4.45,-0.55 -0.6,-0.2 -1.35,-0.75 -3.45,-2.5 -0.8,-0.7 Q -54.5,242.8 -54.5,241 l 0.2,-0.9 1.35,-1.55 q 1.1,-0.75 2,-0.85 0.75,-0.1 0.45,-1.2 l 5.05,-1.15 0.15,0.6 0.35,0.5 q 2.15,1.65 4.45,0.55 l 0.65,-0.1 q 1.65,-0.55 2.5,-2.35 0.85,-1.8 3.85,-2.1 5.05,-0.45 9.1,1.35 l 4.85,2.3 8.15,3.7 0.85,0.35 3.05,0.55 q 1.8,-0.1 3.5,0.05 1.95,0.2 3.5,-0.75 L 1.75,238.25 2.2,237.6 Q 2.9,236.15 2.35,233.55 2.1,232.3 1.1,232.1 L 0.35,231.75 Q 0,231.5 -0.5,231.5 q -2.25,0 -3.7,-1.25 Q -4.5,230 -4.95,229.9 L -6,229.5 q -2.8,-1.6 -0.55,-4.55 l 1.8,-2.6 q 0.25,-0.35 0.15,-0.8 -0.35,-1.35 -1.4,-1.6 -4.85,-1.2 -9.5,0.55 -1.2,0.4 -2.1,1.95 -0.95,1.55 -1.65,4 -0.4,1.5 -2.25,1.2 l -1.35,-0.45 -0.75,-0.55 -0.75,-0.75 -0.75,-0.8 -1.8,-1.35 -1.2,-0.65 -2.4,-2.1 q -1.35,-1.5 -3.55,-1.2 L -37,220 q -3.4,-0.1 -6.1,1.3 l -0.85,0.35 -0.55,0.35 q -1.8,2.05 -2.8,3.65 -0.9,1.4 -0.75,3.35 l 0.2,0.95 0.35,0.55 q 1.5,1.6 1.9,4 l 0.1,0.6 0.05,0.1 -4.9,0.7 -4.15,-0.5 q -3.75,0.05 -6.1,-2.3 -0.9,-0.9 -2.4,-0.85 l -1,-0.2 q -2.2,-1 -4.25,0.3 l -0.45,0.55 -0.6,1.2 -0.4,0.8 q -1.05,1.8 -0.05,2.85 0.25,0.25 0.35,0.75 0.3,1.9 -1.55,2.2 l -0.6,0.1 -1.9,0.1 q -0.8,-0.15 -1.3,-0.65 -0.25,-0.25 -0.75,-0.35 -1.95,-0.45 -3.15,-1.2 l -0.7,-0.45 -0.75,-0.7 -1.05,-1.45 -1.2,-1.7 q -2.55,-3.6 -2.1,-8.9 l 0.05,-0.35 q 0.1,-2.6 -0.9,-4.75 l -0.45,-0.75 -0.5,-0.8 -0.45,-0.75 q -0.75,-1.6 -2.2,-2 l -0.75,-0.25 -1.7,-0.7 -0.8,-0.45 -1.35,-0.7 -1.1,-0.65 -0.7,-1.25 -0.5,-1.2 -0.4,-0.85 -1.1,-3.1 -0.35,-1.4 q -0.65,-2.7 -2.75,-4.2 -1.9,-1.45 -4.6,-0.95 -0.5,0.1 -0.75,0.35 -0.5,0.5 -0.65,1.25 -0.5,3.15 1.25,4.7 1.05,0.95 1.9,2.15 l 0.6,0.8 q 0.6,0.55 1.1,1.85 0.5,1.25 1.3,1.85 l 0.45,0.55 0.8,1.1 1.05,1.2 2.15,2.65 0.55,0.8 0.5,0.7 0.7,0.7 q 1.8,1.15 3.9,3.1 0.5,0.45 0.6,1 0.1,0.55 -0.15,1.25 -0.35,0.85 -1.3,0.55 -0.9,-0.35 -1.1,-0.9 -0.55,-1.6 -1.8,-0.85 -0.7,0.45 -1,1.7 l -0.6,0.6 q -2.35,1.15 -5,1.6 -1.5,0.25 -2.35,-0.85 l -0.5,-0.5 -0.8,-0.6 q -0.5,-0.45 -0.5,-1.05 0,-0.6 0.5,-1.35 0.15,-0.25 0.65,-0.25 3.3,-0.05 1.15,-2.65 -1.1,-1.35 -3.1,-2.5 -2.6,-1.5 -4.2,-3.2 -1.65,-1.75 -2.05,-3.6 l -0.1,-0.6 q -0.5,-2.7 -1.5,-5.05 l -0.4,-0.8 -2.1,-4.2 q -1.05,-1.85 -3.05,-3.15 l -0.8,-0.5 -0.8,-0.4 -0.6,-0.3 q -2.7,-1.6 -5.9,-2.75 l -1.6,-0.65 -0.95,-0.15 h -1 l -1.35,-0.55 -2.1,-0.55 q -0.55,-0.15 -0.95,-0.5 -2.5,-2.3 -6.1,-1.75 -0.75,0.1 -1.4,0.5 -0.9,0.6 -1.6,0.65 l -3,-0.25 q -1.5,-0.4 -2.15,-1.45 l -0.35,-1.1 q -0.1,-2.05 -2,-2.3 l -2.95,-0.4 q -1.95,-0.3 -2.65,1.15 l -0.45,0.5 q -1.8,1.3 -4.45,1.25 l -3,-0.3 -1.95,-0.55 -0.6,-0.2 -0.85,-0.35 -1.15,-0.35 q -2,-0.25 -3.45,-1.45 l -0.55,-0.4 -4,-1.45 -0.8,-0.35 q -1,-0.6 -2.65,-0.75 l -0.9,-0.25 -1.6,-0.85 Q -184,178 -184,174 q 0,-0.75 -0.35,-1.25 -0.7,-0.9 -1.25,-2.7 l -1,-2.5 q -1.1,-2 -1.6,-4 l -0.1,-0.6 q -0.35,-1.6 0.4,-2.9 l 0.3,-0.6 q 1.2,-2.9 3.55,-4.55 l 1.15,-0.7 0.65,-0.45 q 3.75,-3.5 8.8,-1.9 0.45,0.15 0.8,0.35 2.1,1.3 3.65,2.75 1.85,1.75 2.85,3.15 2.7,3.75 5.7,6.85 1.35,1.45 2.4,3.1 l 0.7,0.85 0.75,0.75 0.7,0.75 q 1.1,1.4 3.4,1.55 l 0.7,-0.2 1,-1.65 1.8,-2.6 q 1.15,-1.2 0.8,-3.5 l -0.25,-1 q -0.7,-2.25 -2.15,-3.95 l -1.45,-1.5 q -1.25,-1.1 -0.9,-3.05 0.2,-1.25 0.8,-2.1 0.55,-0.8 1.1,-0.7 l 1.05,0.3 3.45,1.15 0.55,0.1 q 0.95,0 1.55,0.75 l 0.5,0.3 q 2.65,0.65 5,2.1 l 2.6,1.9 q 2.05,1.7 4.85,1.3 l 2.4,-0.1 2.15,0.4 q 2.6,0.8 5.45,1 l 4.5,0.3 q 1.5,0.1 2.4,-0.8 0.95,-0.9 1.7,-1.25 2.6,-1.2 5.4,-0.1 l 2.55,1.4 q 1.65,1.55 3.95,1.75 l 0.5,0.05 h 0.5 q 2.55,-0.2 4.05,-1.2 0.9,-0.6 1.05,-1.55 0.55,-2.85 2.3,-4.6 l 0.75,-0.7 1,-0.95 q 1.05,-1.45 2.45,-0.35 l 0.95,0.5 q 2.15,0.5 2,2.85 l -0.2,1.2 q -0.1,0.55 -0.5,0.9 -1.3,1.3 -1.35,3.65 l -0.15,2.45 -0.1,1.05 q 0,2 1.25,3.05 l 0.3,0.5 0.35,1.4 q 0.6,2.8 3.3,3.2 l 6.05,0.8 1.4,0.3 1.55,0.85 0.6,0.3 q 2.25,1.1 4.95,0.9 l 1,-0.1 q 3.15,-0.3 5.5,-2.25 l 0.3,-0.5 q 0.65,-2.7 2.65,-4.05 0.55,-0.4 1.1,-0.5 l 4.45,-0.6 1,-0.05 q 1.8,-0.1 2.9,-1.35 0.35,-0.4 0.35,-0.9 -0.05,-1.75 0.7,-3 l 0.7,-0.75 q 1.35,-0.85 1.2,-2.25 -0.2,-1.4 -0.75,-3.05 -0.65,-2 -0.65,-4.25 V 152 l 0.45,-6 0.4,-1.35 0.25,-0.75 0.55,-1 1,-0.7 0.7,-0.45 q 1.3,-1.2 2.65,-1.4 l 1.1,-0.25 q 2.4,-0.75 3.35,-2.65 1.45,-2.85 -0.85,-4.55 -0.55,-0.4 -1.15,-0.55 l -2.4,-0.5 q -1.6,-0.2 -2.15,0.5 L -44.5,133 q -1.05,0.6 -1.9,1.6 l -1.2,1.35 q -1,1.15 -1.75,3.1 l -0.4,0.7 -0.65,0.45 -2.2,1.1 -0.8,0.4 -1.2,0.65 -1.1,0.9 q -1.1,1.3 -2.8,2.25 l -0.75,0.65 q -1.7,2.55 0.6,4.05 1.8,1.15 1.5,3 l -0.45,1.25 -0.2,0.6 q -0.6,3.6 -4.2,2.95 -2.9,-0.5 -4.95,1.05 -1.35,1.05 -2.6,2.9 l -0.5,0.5 -0.9,0.65 -1.05,0.9 q -1.3,1.4 -3,1.5 l -0.95,-0.15 -2.1,-0.6 q -1.1,-0.25 -2.05,-1.1 l -1.2,-1.75 -0.4,-0.8 q -0.75,-1.45 -0.8,-3.1 l 0.05,-1.3 0.3,-1.25 q 0.55,-1.4 0.45,-2.95 -0.05,-0.95 0.75,-1.35 1.05,-0.55 1.15,-2.15 0.15,-2.6 -0.55,-4.05 -0.75,-1.5 -2.2,-1.85 l -0.85,0.1 q -1.75,0.75 -3.6,1 -5.35,0.65 -8.6,-2.1 l -0.65,-0.75 -0.5,-0.6 q -0.75,-0.75 -0.9,-1.8 l -0.1,-0.85 0.1,-0.6 q 0.25,-2.1 1.1,-4.05 l 0.7,-1.35 q 2.1,-3.2 5.8,-4.35 2.25,-0.7 4.45,0.45 l 6.05,0.2 3.05,-0.4 q 3.55,0.35 5.4,-1.6 l 1.2,-1.3 7.45,-7.05 3.5,-2.95 0.9,-0.7 1.65,-1.25 1.35,-0.75 q 2.2,-1.15 3.6,-1.75 4.95,-2.2 9.45,-4.6 l 1.05,-0.4 3.4,-1.25 q 4.45,-2.35 10.05,-2 2.35,0.15 3.45,1.65 0.55,0.7 0.8,1.55 1.45,4.35 5.3,7.3 l 0.85,0.75 0.75,0.5 1.85,0.6 v 1.75 q 1.7,0.95 3.65,2.25 l 0.75,0.45 1.2,0.6 q 2.45,1.15 5.4,1.1 2.4,-0.05 3.6,2.05 l 0.4,0.55 v 1 q 1.2,1.45 1.8,3.1 0.55,1.65 -0.35,2.85 l -0.5,0.35 q -1.8,0.4 -3.5,1.1 l -2.6,1.4 -0.7,0.45 -0.65,0.75 q -0.85,1.5 -0.35,3.45 l 0.7,2.1 0.4,0.7 0.65,0.45 1.2,0.6 0.9,0.3 q 1.7,0.35 2.45,-0.85 l 0.9,-0.95 0.75,-0.75 q 1.2,-1.45 2.25,-3.6 l 1.8,-3.65 1.05,-2.2 0.8,-1.1 0.55,-0.45 Q 9.65,127.4 10,125 l 0.5,-0.5 M 258,-6 q -0.2,-2.2 -1.25,-3.7 -0.25,-0.3 -0.25,-0.8 0,-4.8 -1.8,-9.1 -0.2,-0.4 -0.25,-0.9 -0.25,-2.55 -1.25,-4.15 l -0.35,-0.8 -0.35,-0.55 q -1.85,-2.05 -3.05,-4.45 l -1.8,-3.15 -2.85,-4.8 -0.75,-1.15 q -2,-2.5 -5.5,-3.1 l -2.55,-0.2 -7.5,0.4 q -2,0.25 -3.7,-0.75 l -1.3,-0.4 -4.5,-0.9 -0.65,-0.2 -3.35,-0.45 -9.6,0.35 h -0.1 l -1.3,0.1 -3.05,0.35 h -0.45 l -1.5,0.15 -3.5,0.35 q -2.3,0.2 -2.05,-2.1 l 0.2,-0.5 q 0.9,-2.15 2.8,-2.75 1.5,-0.55 2.2,-1.05 l 0.8,-0.4 q 3.7,-1.15 7.45,0.8 2.2,1.15 4.6,1.35 l 3.85,0.45 1.15,0.15 2.25,0.3 0.25,0.05 q 1.9,0.3 3.1,-1.4 l 0.8,-1.1 q 0.9,-1.2 0.75,-2.95 -0.15,-1.5 0.25,-2.9 0.1,-0.35 0.6,-0.35 l 1.05,0.15 0.85,0.3 1.2,0.55 1.25,0.55 0.8,0.6 q 0.35,0.35 0.9,0.5 1.8,0.6 2.65,2 0.7,1.1 1.7,1.4 l 1.2,0.5 0.85,0.35 0.6,0.15 2.05,0.35 h 0.05 l 3.4,0.6 2.45,0.35 4.55,0.7 1.45,0.3 q 3,0.35 3.6,2.85 0.25,1 1.15,1.8 l 0.35,0.7 0.7,2.15 0.35,0.85 q 0.4,1.55 1.1,2.7 l 0.45,0.75 q 1.1,2.3 1.65,4.65 l 0.25,1.45 0.5,1.45 0.25,0.6 1.4,3.85 q 0.25,0.85 0.75,1.6 l 1.25,2.4 1.7,5.1 q 0.75,2.65 0.8,5.5 l -0.25,1 q -0.65,1.35 -1,2.9 L 266,-4.5 260.05,-4.9 259,-5.5 258.5,-6 H 258 m -80,-87 1.4,0.15 L 178,-93 M 286.05,50.15 285,50 l -2.05,-2.95 -0.3,-0.4 -0.1,-0.15 -0.35,-0.6 q -0.65,-1.4 -0.85,-3 l -0.05,-1.4 q 0.05,-1.85 1.6,-2.7 l 1.6,0.25 0.25,-0.3 q 0.5,-0.45 1.25,-0.3 l 0.5,0.05 1.15,0.1 v 0.1 l -1.15,8.35 v 0.2 l -0.45,2.9 M -103,-242 l -1,-0.45 1,0.45 m 72.5,156.1 -6,-0.3 q -1.8,-0.05 -3.55,-0.6 -1.3,-0.4 -2.55,-0.95 l -2.35,-0.9 -0.6,-0.15 -2,-0.55 q -1.45,-0.5 -2.2,0.7 l -0.75,0.65 -8.1,4.3 q -1.95,1.05 -3.1,2.55 l -1.1,1.3 -1.3,1.75 -0.8,1.2 q -1.15,1.8 -1.95,3.95 l -0.35,0.85 -0.85,2.1 -0.4,1.5 q -0.65,2.9 -0.95,6 l -0.3,2.45 v 0.15 -0.15 l 0.3,-2.45 q 0.3,-3.1 0.95,-6 l 0.4,-1.5 0.85,-2.1 0.35,-0.85 q 0.8,-2.15 1.95,-3.95 l 0.8,-1.2 1.3,-1.75 1.1,-1.3 q 1.15,-1.5 3.1,-2.55 l 8.1,-4.3 0.75,-0.65 q 0.75,-1.2 2.2,-0.7 l 2,0.55 0.6,0.15 2.35,0.9 q 1.25,0.55 2.55,0.95 1.75,0.55 3.55,0.6 l 6,0.3 m -154.65,-40 q -0.5,0.2 -0.55,0.9 -0.05,0.25 -0.25,0.55 -0.7,1.05 -2.1,1.3 -3.2,0.6 -5,-0.8 l -1.45,-1.05 q -1.45,-1.05 -3,0 -1.75,1.15 -0.4,2.4 l 0.7,0.75 q 0.6,0.75 1.2,0.85 1.45,0.25 1.1,2 -0.3,1.75 -1.1,2.5 -1.95,1.95 -0.05,3.1 l 0.6,0.25 q 1.45,0.45 2.35,-0.45 3.2,-3.25 5.25,-7.85 1.65,-3.65 5.8,-2.85 l 4.55,0.3 q 0.5,0 0.85,-0.25 1.25,-0.8 3.15,-1.25 l 4.5,-0.9 q 0.5,-0.1 0.75,-0.35 l 1.15,-0.95 q 0.6,-0.3 0.7,-0.9 0.4,-1.9 0.35,-3.9 -0.05,-2.55 1.1,-4.45 l 0.4,-0.6 q 1.5,-2.05 0.9,-4.9 -0.1,-0.55 -0.45,-0.65 -2.75,-0.85 -3.25,1.15 l -0.5,1.15 -0.8,1.2 q -1.3,2.5 -3.85,3 -0.5,0.1 -0.8,0.35 l -3.35,3.1 -0.4,0.75 q -0.2,0.85 -0.95,1.4 l -3.5,3 1.05,-2.5 0.55,-0.95 q 1,-1.3 -0.1,-3.05 l 1,-1.5 q 0.05,-1.8 -1.25,-2.8 l -0.5,-0.55 -0.7,-0.7 -2.15,-1.85 -1.5,-1.45 q -1.15,-1 -2.9,-0.6 -2.25,0.5 -1.85,2.9 l 0.5,0.9 q 2.8,2.7 4.8,5.65 0.9,1.25 0.65,3 l -0.15,1.15 -0.05,0.35 q -0.25,1.8 -1.4,2.5 l 0.35,1.6 m 71.65,196.4 0.2,0.9 q 0.6,1 0.75,2.1 l 0.2,0.95 0.55,1.6 0.45,2.95 q 0.2,2.25 -0.65,4 -1.1,2.3 -4,2.45 -1.45,0.05 -2.35,-1.05 -1.8,-2.2 -4.15,-4.4 -1.6,-1.55 -3.55,-2.9 -2.25,-1.5 -3.5,-3.05 -1.6,-2.05 -1,-5.05 0.3,-1.7 1.55,-3.5 l 1.3,-1.65 1.2,-1.35 1.85,-2.1 q 1.15,-1.55 2.5,-0.25 l 0.8,0.65 q 4.25,3.05 5.5,7.15 l 0.2,0.6 q 0.4,0.95 0.55,2.05 l 1.6,-0.1 m -1.5,2 -0.1,-1.9 0.1,1.9 m -19,57 -0.55,0.95 -0.5,0.35 q -0.95,0.2 -1.5,0.65 l -0.8,0.7 -0.65,0.85 q -0.5,1 -1.4,1.6 -0.6,0.4 -1.15,0.45 l -6.95,0.45 -0.85,-0.25 -0.8,-0.5 -0.7,-0.5 -0.8,-0.55 -1.25,-0.85 q -2.85,-1.7 -2.4,-4.8 l 0.3,-0.55 q 3.05,-3.35 8,-3.05 l 7.5,0.5 1.35,0.35 q 1.85,0.9 3.15,2.7 v 1.5 m 15.05,-7.65 q 1.35,0.3 1.35,1.65 v 5.5 q -0.05,2.75 -1.85,4.05 l -0.6,0.4 -0.65,0.7 -0.65,1.1 q -1.15,1.8 -1.15,4.75 l -0.15,0.95 q -1.95,4.7 -1.25,10.05 0.3,2.5 -0.6,4.5 -0.25,0.5 -0.6,0.6 l -3.75,0.3 q -1.85,-0.2 -3.6,-0.95 -3.55,-1.55 -6.6,-3.85 l -0.8,-0.75 q -2.7,-3.2 -2,-7.85 0.2,-1.5 1.35,-2 l 0.75,-0.65 q 0.75,-1.2 2.25,-1.05 l 4.5,0.4 q 0.95,0.05 1.5,-0.7 1.9,-2.8 1.6,-6.5 l 0.1,-2.45 0.25,-1.3 0.5,-4.25 0.4,-1.3 q 0.55,-0.8 0.65,-2.15 l 0.95,-0.2 1.1,-0.2 3.55,0.15 3.45,1.05 M 245,152.5 q -1.45,0.05 -2.15,0.85 l -0.75,0.75 q -0.9,0.9 -0.85,2.4 l -0.35,1.45 q -0.8,1.4 -1.1,3 l -0.25,0.55 0.25,-0.55 q 0.3,-1.6 1.1,-3 l 0.35,-1.45 q -0.05,-1.5 0.85,-2.4 l 0.75,-0.75 q 0.7,-0.8 2.15,-0.85 m -361.85,69.05 0.45,-0.65 q 2.35,-0.75 4.45,0.55 l 0.95,0.3 q 1.5,-0.05 2.1,0.7 l 0.3,0.6 0.45,0.85 q 0.4,1 0.5,2.15 v 0.05 1.4 q -0.1,1.7 -1.8,1.3 l -0.6,-0.2 q -2.85,-1.2 -4.85,-3.7 l -0.75,-0.6 q -1.6,-0.8 -1.2,-2.75 m -13.65,-6.55 -1.25,-1.25 1.25,1.25 M 278,41.5 q 0.6,0.75 0.8,1.6 0.2,0.85 0.05,1.85 l -0.1,1.05 q 0.1,1.5 -1.3,1.9 l -0.8,-0.15 -0.8,-0.55 q -1.6,-1.15 -2.5,-2.6 -0.35,-0.6 -0.2,-1.55 l 0.25,-1.1 0.3,-0.8 q 0.9,-1.5 3.3,-1.15 l 1,1.5 M 81.55,209.9 82.5,210 81.55,209.9 q -1.65,-0.3 -3.15,-1.2 l -0.9,-0.25 q -1.55,-0.1 -2.6,0.95 l -0.9,0.55 q -3.2,1.4 -2.3,5 l 0.3,0.55 q 1.7,1.75 4.45,1.55 l 0.7,-0.3 0.7,-0.5 0.75,-0.65 2,-2.05 q 1.25,-1.35 0.95,-3.65 m -35.05,6.85 -1,1.25 Q 43,216.6 40,216.75 l -1,-0.05 q -1.75,-0.25 -2.85,0.95 -1.25,1.35 -2.2,2.85 -1.45,2.3 -0.6,5.4 0.15,0.6 0.65,1.1 1.55,1.6 2.7,3.35 l 0.7,0.75 q 2.95,2.45 2.8,6.9 -0.2,4 0,8 l 0.25,1 q 1.2,3.1 3.6,3.85 l 0.95,0.2 q 5.5,0.3 10.45,-1.2 l 0.6,-0.2 q 2.4,-0.65 2.2,-3.15 -0.2,-2.55 -2.6,-3.8 l -0.75,-0.6 -1.65,-1.45 -0.95,-1 -0.65,-0.75 -0.75,-0.8 q -1.6,-1.55 -2.45,-4.1 l -0.5,-0.95 -1.5,-2.55 -2.7,-4.65 L 43.4,225 q -0.3,-1.4 0.6,-1.5 1.35,-0.15 1.8,-1.4 l 0.6,-1.15 q 1.05,-1.5 1.15,-3.45 0,-0.8 -1.05,-0.75"
       id="path10"
       style="fill:url(#radialGradient866);fill-opacity:1;fill-rule:evenodd;stroke:#5ea233;stroke-opacity:1"
       inkscape:connector-curvature="0" />
  </g>
</svg>
