<?xml version="1.0" encoding="UTF-8" standalone="no"?>
<svg xmlns:xlink="http://www.w3.org/1999/xlink" height="100.0px" width="100.0px" xmlns="http://www.w3.org/2000/svg">
  <g transform="matrix(1.0, 0.0, 0.0, 1.0, 50.0, 50.0)">
    <path d="M23.35 43.55 L23.3 43.6 23.3 43.55 23.35 43.55" fill="#b8b8b9" fill-rule="evenodd" stroke="none"/>
    <path d="M2.35 -49.95 L4.5 -49.8 4.5 -49.2 1.4 -46.5 0.3 -46.85 0.0 -47.7 0.05 -49.25 2.35 -49.95 M32.15 -38.3 L35.35 -35.35 36.55 -34.1 33.45 -32.2 33.7 -32.85 33.95 -34.6 33.95 -34.65 33.9 -34.95 Q33.55 -36.45 31.75 -37.35 L31.8 -38.05 32.15 -38.3 M48.9 -10.95 L49.1 -9.85 49.3 -8.75 49.2 -8.85 48.4 -9.3 48.9 -10.95 M49.75 -5.55 L49.9 -3.7 49.9 -3.25 49.1 -4.9 49.75 -5.55 M48.9 10.95 L48.9 11.05 48.85 11.35 48.75 11.75 48.15 13.95 48.1 14.1 47.65 13.45 47.2 11.2 47.75 11.15 48.9 10.95 M41.0 28.75 L39.35 30.9 38.3 27.2 Q39.5 28.3 41.0 28.75 M33.95 36.7 L33.85 36.75 33.65 36.95 33.6 36.85 33.95 36.7 M7.9 49.45 L6.25 49.65 5.65 49.7 5.4 49.75 3.3 49.9 Q5.4 47.25 6.1 43.8 L6.35 42.6 12.15 48.6 7.9 49.45 M-14.1 48.1 L-16.75 47.25 -14.65 47.25 -14.1 48.1 M-24.25 43.85 L-26.25 42.7 -23.6 42.65 -24.25 43.85 M-27.35 41.95 L-34.1 36.55 -31.8 36.3 -30.75 37.4 Q-28.7 39.45 -27.35 41.95 M-40.55 29.35 L-46.05 18.9 -45.45 19.7 -45.2 20.0 Q-41.75 24.05 -36.5 22.6 L-34.95 21.5 -31.55 23.9 -33.5 26.1 -31.05 28.7 -32.2 28.1 Q-36.8 25.75 -40.55 29.35 M-43.4 -25.05 L-41.05 -28.65 -41.3 -27.8 Q-41.8 -26.1 -43.4 -25.05 M-34.8 -35.9 L-34.55 -36.15 -34.35 -35.9 -34.8 -35.9 M-24.55 -43.7 L-24.3 -43.85 -18.45 -46.65 -17.4 -46.65 -20.85 -44.1 -24.55 -43.7 M20.65 -45.7 L20.6 -45.7 19.25 -46.0 19.8 -46.05 20.2 -45.9 20.65 -45.7 M17.65 -45.6 L17.3 -44.8 16.7 -45.35 17.65 -45.6 M36.9 -21.2 L36.75 -21.3 38.55 -23.35 40.1 -22.25 36.9 -21.2 M26.3 -28.3 L26.25 -28.3 26.3 -28.35 26.3 -28.3 M23.8 -41.0 L22.1 -42.1 19.5 -43.7 26.15 -42.3 23.8 -41.0 M24.6 -30.95 L24.0 -30.2 23.7 -30.6 24.6 -30.95 M31.1 -31.0 L32.15 -31.2 31.0 -30.3 31.1 -31.0 M12.75 -12.6 L11.45 -11.7 11.1 -11.95 12.5 -12.9 12.75 -12.6 M-3.45 -33.3 L-1.85 -33.2 -1.8 -33.05 -3.75 -32.5 -3.7 -32.6 -3.45 -33.3 M6.4 -34.95 L4.9 -37.95 Q5.5 -37.95 5.95 -37.05 6.4 -36.2 6.4 -34.95 M-16.3 -42.1 L-16.35 -41.95 -17.4 -42.25 -16.4 -42.2 -16.3 -42.1 M-18.05 -34.25 L-18.05 -33.65 -19.2 -34.3 -18.05 -34.25 M-23.35 -33.25 L-22.5 -32.45 -23.95 -31.95 Q-29.8 -29.6 -31.35 -23.55 L-32.75 -24.0 -34.3 -21.6 -35.4 -21.9 -36.9 -20.7 -38.35 -21.7 Q-40.0 -18.4 -43.75 -17.4 L-44.65 -17.1 -43.4 -19.0 Q-40.85 -22.8 -37.45 -25.95 L-37.6 -24.75 Q-29.6 -25.15 -26.65 -32.45 L-25.1 -32.75 Q-24.45 -33.1 -24.45 -33.6 L-23.35 -33.25 M-16.15 -24.4 L-14.4 -21.5 -15.35 -18.25 -16.4 -17.1 -16.15 -24.4 M-28.5 -1.55 L-27.9 -0.5 -29.1 2.9 -29.35 3.1 -33.3 2.05 -32.85 -1.15 -29.25 -1.0 -28.5 -1.55 M-26.4 -3.1 L-26.7 -3.6 Q-25.5 -5.3 -26.35 -7.35 L-26.85 -8.35 -15.9 -14.35 -13.8 -9.05 -14.7 -9.4 Q-18.7 -10.45 -21.6 -7.15 L-25.85 -3.4 -26.4 -3.1 M-8.85 -14.4 L-9.25 -14.65 -8.75 -16.3 -7.45 -15.55 -8.45 -14.5 -8.85 -14.4 M2.7 -7.5 L3.15 -6.7 2.2 -7.2 2.7 -7.5 M-9.9 4.4 L-11.1 5.1 -13.9 1.9 -13.4 1.35 -12.15 1.15 -12.15 1.2 -9.9 4.4 M-12.45 -1.25 L-12.8 -1.3 -11.8 -2.4 -12.45 -1.25 M-22.95 3.15 L-23.35 2.6 -22.7 1.9 -21.15 2.5 -21.25 2.95 -22.95 3.15 M-30.1 29.25 L-24.8 29.45 -24.45 28.75 -25.0 27.65 -26.1 27.7 Q-28.3 27.35 -30.3 26.05 L-29.0 25.25 -27.5 25.8 Q-22.0 27.55 -20.55 21.6 L-19.3 22.6 -19.05 23.7 Q-19.7 23.7 -20.15 24.25 -20.6 24.8 -20.6 25.55 L-23.8 26.8 -23.75 28.65 -19.05 27.85 -15.8 27.55 -14.85 27.95 Q-12.95 28.35 -11.5 27.2 L-11.3 27.2 -6.35 29.8 -5.75 31.5 -5.45 32.9 -4.7 33.45 -3.6 35.2 Q-5.75 36.35 -7.4 38.2 L-9.5 40.75 -10.8 41.05 Q-15.6 41.65 -20.4 40.85 L-23.5 36.45 -23.15 34.9 Q-22.6 32.45 -21.0 30.45 L-22.25 29.0 Q-24.35 30.65 -25.2 32.9 -26.2 35.7 -25.15 38.45 L-26.15 35.95 Q-26.9 34.0 -26.8 31.95 L-30.1 29.25 M-19.35 11.35 L-18.15 10.9 -17.65 11.15 -18.3 12.05 Q-19.75 13.95 -20.0 16.3 L-22.15 13.65 Q-21.0 13.65 -20.15 13.0 -19.35 12.3 -19.35 11.35 M-1.5 12.1 L-5.3 11.1 -5.25 10.85 -2.45 11.3 -1.5 12.1 M3.15 23.9 L4.0 22.7 5.7 22.65 5.8 24.75 6.35 25.4 6.65 26.25 4.0 25.9 3.15 23.9 M7.75 32.3 L9.05 31.7 8.5 33.1 7.75 32.3 M17.05 39.7 Q17.05 40.2 16.45 40.55 L15.0 40.9 15.05 40.45 16.15 39.35 17.05 39.7 M16.75 43.3 Q18.55 42.6 19.1 41.05 L19.35 40.25 26.5 40.4 23.35 43.55 23.3 43.55 23.3 43.6 21.95 43.8 Q19.2 44.55 16.75 43.3 M25.2 22.4 L24.55 20.6 25.3 20.85 26.4 21.95 25.2 22.4 M9.2 7.85 L7.45 7.4 6.8 6.35 8.7 6.4 9.2 7.85 M30.65 -5.7 L31.05 -4.55 30.7 -4.45 30.2 -5.1 30.65 -5.7 M0.25 -20.95 L-0.65 -18.85 -2.45 -21.0 0.25 -20.95 M10.45 -0.7 L10.4 -0.8 10.45 -0.75 10.45 -0.7 M35.95 -11.0 L36.7 -11.6 37.8 -8.4 35.95 -11.0 M-42.0 -12.9 L-42.65 -14.7 -39.75 -16.85 -42.0 -12.9 M-46.2 -13.1 L-45.0 -11.35 -43.7 -11.3 Q-43.0 -11.4 -42.4 -12.25 -42.65 -10.6 -43.3 -9.85 -43.95 -9.15 -44.7 -9.45 -45.45 -9.75 -45.85 -10.9 -46.3 -12.05 -46.2 -13.1 M-8.6 -38.85 L-12.1 -40.55 -7.85 -40.15 -8.6 -38.85 M-12.9 -26.15 L-14.1 -25.65 -15.2 -29.55 -13.2 -29.9 -12.9 -26.15 M-3.0 -29.85 L-0.85 -30.65 2.05 -25.45 -3.25 -25.65 -2.9 -26.4 Q-2.15 -28.15 -3.0 -29.85 M-35.25 -27.75 L-37.05 -26.4 -36.4 -29.3 -35.25 -27.75 M-35.2 -33.25 L-36.05 -31.8 -36.2 -33.3 -35.2 -33.25 M-1.25 -1.8 L-1.3 -1.9 -1.25 -1.8 M-20.65 34.95 L-16.65 38.45 Q-16.1 39.0 -15.2 38.9 -12.15 35.25 -15.0 32.65 -17.3 30.5 -20.65 31.55 L-20.65 34.95 M41.05 11.7 L41.05 12.0 40.4 13.15 39.75 13.6 Q38.65 14.6 38.05 16.1 L37.1 16.7 37.1 11.95 41.05 11.7 M21.6 10.9 L21.45 11.15 19.85 9.8 21.6 10.9 M22.25 22.7 L22.2 21.6 22.65 22.7 22.25 22.7 M16.4 29.15 L17.4 28.95 18.35 29.25 16.45 29.2 16.4 29.15 M5.7 3.85 L5.2 1.95 5.55 1.55 6.45 1.3 7.75 3.9 5.7 3.85 M8.85 39.0 L7.4 37.45 6.65 36.6 5.85 35.55 6.45 34.65 8.25 36.4 9.3 38.35 8.85 39.0 M1.1 45.25 L0.8 44.9 1.3 44.7 1.1 45.25 M20.5 35.85 L23.15 33.0 24.95 36.3 20.5 35.85" fill="#7a7979" fill-rule="evenodd" stroke="none"/>
    <path d="M-46.05 18.9 L-47.5 15.55 -48.25 13.5 Q-49.6 8.55 -49.9 3.2 L-49.9 3.05 -49.9 3.0 -49.95 2.45 -50.0 0.0 Q-50.0 -13.85 -43.45 -25.0 L-43.4 -25.05 Q-41.8 -26.1 -41.3 -27.8 L-41.05 -28.65 -37.5 -33.1 -36.2 -33.3 -36.05 -31.8 -36.4 -29.3 -37.05 -26.4 -37.45 -25.95 Q-40.85 -22.8 -43.4 -19.0 L-44.65 -17.1 Q-45.95 -15.8 -46.15 -14.0 L-46.2 -13.1 Q-46.3 -12.05 -45.85 -10.9 -45.45 -9.75 -44.7 -9.45 -43.95 -9.15 -43.3 -9.85 -42.65 -10.6 -42.4 -12.25 L-42.0 -12.9 -39.75 -16.85 -37.05 -19.7 -36.9 -20.7 -35.4 -21.9 -34.3 -21.6 Q-33.65 -18.8 -34.55 -16.3 L-34.9 -15.4 -36.45 -15.15 -37.15 -14.0 -37.1 -13.5 -34.65 -13.3 Q-30.55 -16.85 -31.15 -22.2 L-31.35 -23.55 Q-29.8 -29.6 -23.95 -31.95 L-22.5 -32.45 -17.95 -30.05 -16.15 -24.4 -16.4 -17.1 -21.95 -14.75 -22.25 -14.1 -29.85 -8.75 -30.7 -8.1 Q-34.15 -5.45 -32.85 -1.15 L-33.3 2.05 Q-37.3 -1.9 -42.85 -2.7 L-44.55 -2.9 Q-46.55 0.25 -45.0 3.45 -44.3 5.0 -43.1 5.85 -45.1 15.0 -38.2 21.15 L-36.5 22.6 Q-41.75 24.05 -45.2 20.0 L-45.45 19.7 -46.05 18.9 M-41.35 6.95 L-39.7 7.55 -38.8 12.3 -41.35 6.95 M-37.1 15.8 Q-34.95 18.85 -32.25 21.25 L-30.4 22.85 -30.8 23.55 -31.55 23.9 -34.95 21.5 -34.65 20.9 -37.1 15.8 M-29.0 25.25 L-26.8 22.15 Q-35.35 13.35 -41.85 2.7 L-43.7 -0.4 -42.1 -0.4 Q-38.9 6.5 -31.8 8.75 L-30.05 9.15 Q-29.7 10.75 -28.4 11.65 L-27.75 12.0 -27.35 12.85 -27.45 15.3 -26.0 15.25 -20.55 21.6 Q-22.0 27.55 -27.5 25.8 L-29.0 25.25 M-20.65 34.95 L-20.65 31.55 Q-17.3 30.5 -15.0 32.65 -12.15 35.25 -15.2 38.9 -16.1 39.0 -16.65 38.45 L-20.65 34.95" fill="#666666" fill-rule="evenodd" stroke="none"/>
    <path d="M9.0 -49.25 L10.7 -48.95 11.1 -46.4 9.15 -46.7 9.0 -49.25 M15.6 -47.65 L16.15 -47.45 18.3 -46.7 19.4 -46.25 19.8 -46.05 19.25 -46.0 17.65 -45.6 16.7 -45.35 Q15.95 -46.45 15.6 -47.65 M27.45 -41.9 L27.7 -41.7 27.25 -36.3 25.9 -38.15 26.0 -39.3 23.8 -41.0 26.15 -42.3 27.45 -41.9 M31.85 -38.55 L32.15 -38.3 31.8 -38.05 31.85 -38.55 M39.1 -31.2 L40.65 -29.25 41.5 -28.05 39.85 -28.8 37.0 -29.15 39.1 -31.2 M47.5 -16.1 L47.6 -15.75 47.65 -15.65 47.7 -15.45 48.9 -10.95 48.4 -9.3 46.1 -9.05 44.45 -12.85 Q46.65 -14.25 47.5 -16.1 M49.95 2.9 L49.55 7.3 47.5 8.45 46.7 8.6 46.75 3.5 49.95 2.9 M33.65 36.95 L33.3 37.25 32.3 36.9 33.6 36.85 33.65 36.95 M27.95 41.55 L23.65 44.2 23.5 44.3 23.3 44.4 22.95 44.6 20.2 45.9 19.8 46.05 16.65 47.3 13.7 43.95 16.75 43.3 Q19.2 44.55 21.95 43.8 L23.3 43.6 23.35 43.55 26.5 40.4 27.95 41.55 M-31.3 -39.05 L-30.85 -39.4 -30.6 -39.6 -29.6 -39.6 -29.95 -37.1 -31.3 -39.05 M0.0 -47.7 L0.3 -46.85 0.0 -46.8 0.0 -47.7 M31.75 -37.35 Q33.55 -36.45 33.9 -34.95 L33.35 -35.5 Q32.7 -35.9 31.6 -35.9 L31.75 -37.35 M33.95 -34.6 L33.7 -32.85 33.45 -32.2 32.15 -31.2 31.1 -31.0 31.4 -33.45 33.1 -33.75 Q33.85 -34.1 33.95 -34.6 M21.1 -31.75 L21.35 -30.0 19.7 -30.0 19.45 -30.8 18.85 -31.15 21.1 -31.75 M29.35 -21.35 L33.4 -20.0 31.7 -19.35 29.3 -21.15 29.35 -21.35 M36.75 -21.3 L30.2 -23.85 30.75 -24.35 37.9 -23.8 38.55 -23.35 36.75 -21.3 M25.05 -25.5 L24.15 -26.4 25.35 -25.75 25.05 -25.5 M34.65 -26.7 L33.8 -26.75 34.45 -27.25 34.65 -26.7 M23.7 -30.6 L25.2 -33.05 24.6 -30.95 23.7 -30.6 M5.55 -40.1 L7.45 -34.4 6.65 -34.35 6.4 -34.95 Q6.4 -36.2 5.95 -37.05 5.5 -37.95 4.9 -37.95 L5.55 -40.1 M38.3 -26.7 L37.95 -26.95 38.95 -26.7 38.3 -26.7 M45.1 -19.95 Q45.8 -18.25 45.3 -16.4 L45.05 -15.55 43.35 -15.45 43.0 -15.8 45.1 -19.95 M42.15 -10.0 L42.75 -9.15 42.7 -8.4 41.95 -9.7 42.15 -10.0 M38.15 -7.35 L38.0 -7.4 38.05 -7.6 38.15 -7.35 M28.65 -12.95 L29.05 -11.95 27.95 -12.8 28.25 -12.9 28.65 -12.95 M12.15 -20.15 L12.95 -20.15 14.35 -19.9 13.7 -18.45 12.15 -20.15 M-2.65 -35.7 L-4.7 -35.8 -5.25 -36.3 -4.8 -39.7 -3.65 -39.9 -2.65 -35.7 M-11.7 -35.55 L-12.8 -34.7 -15.05 -37.05 -11.7 -35.55 M-16.25 -42.2 L-16.3 -42.1 -16.4 -42.2 -16.25 -42.2 M-17.6 -37.8 L-18.05 -34.25 -19.2 -34.3 -21.95 -35.5 -21.4 -38.65 -17.6 -37.8 M-14.4 -21.5 L-13.95 -20.95 -15.35 -18.25 -14.4 -21.5 M-26.3 -2.9 L-26.4 -3.1 -25.85 -3.4 -26.3 -2.9 M-26.7 -3.6 L-28.0 -7.0 -26.85 -8.35 -26.35 -7.35 Q-25.5 -5.3 -26.7 -3.6 M-11.35 -10.05 L-13.5 -14.5 -10.3 -12.35 -11.35 -10.05 M-9.25 -14.65 L-11.85 -16.75 -10.75 -17.7 -8.75 -16.3 -9.25 -14.65 M1.65 -9.1 L2.7 -7.5 2.2 -7.2 3.15 -6.7 3.45 -6.1 -2.25 -10.0 1.65 -9.1 M-5.9 -9.6 L1.25 -4.35 -1.25 -1.8 -1.3 -1.9 -3.1 -4.25 -5.9 -9.6 M-11.1 5.1 L-15.85 7.3 -16.25 7.0 -13.9 1.9 -11.1 5.1 M-12.15 1.15 L-12.0 1.1 -12.15 1.2 -12.15 1.15 M-14.85 -0.6 Q-17.75 2.15 -18.3 6.1 L-18.4 7.95 Q-20.6 6.45 -22.2 4.25 L-22.95 3.15 -21.25 2.95 -21.15 2.5 -22.7 1.9 -18.9 -2.7 -14.85 -0.6 M-29.15 3.2 L-29.35 3.1 -29.1 2.9 -29.15 3.2 M-24.6 6.75 L-24.1 6.0 -20.85 9.15 -23.85 10.55 -24.55 8.35 -24.6 6.75 M-22.85 12.55 L-19.35 11.35 Q-19.35 12.3 -20.15 13.0 -21.0 13.65 -22.15 13.65 L-22.85 12.55 M-17.65 11.15 L-16.8 11.55 Q-16.0 15.3 -16.8 19.2 L-20.0 16.3 Q-19.75 13.95 -18.3 12.05 L-17.65 11.15 M-14.05 14.4 L-14.35 10.7 -10.05 11.35 -10.45 15.05 -12.5 13.55 -14.05 14.4 M-15.2 27.3 L-11.5 27.2 Q-12.95 28.35 -14.85 27.95 L-15.8 27.55 -15.2 27.3 M-5.65 30.6 L-5.75 31.5 -6.35 29.8 -5.65 30.6 M2.85 15.85 L2.95 15.0 3.55 15.05 3.75 15.45 2.85 15.85 M1.2 13.0 L-0.75 12.75 -1.5 12.1 -2.45 11.3 0.1 10.8 0.7 11.2 1.2 13.0 M4.0 22.7 L5.85 21.5 5.7 22.65 4.0 22.7 M9.05 31.7 L14.1 31.05 16.5 33.15 12.55 36.35 8.5 33.1 9.05 31.7 M15.0 40.9 L14.7 40.95 15.05 40.45 15.0 40.9 M24.55 20.6 L22.95 17.85 24.95 17.4 25.3 20.85 24.55 20.6 M22.95 2.2 L22.8 2.05 23.0 2.1 22.95 2.2 M14.15 -1.7 L13.75 -1.75 13.9 -1.9 14.15 -1.7 M14.95 -9.4 L18.55 -10.9 17.1 -9.15 Q16.1 -7.7 15.85 -6.0 L15.8 -6.0 14.95 -9.4 M31.05 -4.55 L31.3 -3.4 Q31.05 -3.4 30.9 -3.7 L30.7 -4.45 31.05 -4.55 M33.65 -4.65 L32.65 -7.2 35.5 -5.55 33.65 -4.65 M46.2 -4.5 L47.2 -3.3 45.3 -0.65 44.55 -0.45 43.6 -4.1 46.2 -4.5 M28.6 -18.6 L29.1 -18.25 28.35 -17.95 28.6 -18.6 M-24.6 -36.2 L-25.2 -36.3 -26.55 -36.9 -27.3 -38.25 -26.6 -39.45 -24.05 -39.1 -24.6 -36.2 M-3.75 -32.5 L-3.8 -32.45 -3.7 -32.6 -3.75 -32.5 M-29.55 -32.4 L-35.25 -27.75 -36.4 -29.3 -36.05 -31.8 -35.2 -33.25 -34.5 -33.2 -33.3 -31.75 -32.0 -32.05 -31.5 -32.85 -29.55 -32.4 M-9.65 8.45 L-12.55 8.5 -9.45 6.95 -9.65 8.45 M-18.2 23.35 L-19.05 23.7 -19.3 22.6 -18.2 23.35 M-3.35 17.75 L-5.25 16.55 -4.05 13.6 -0.7 15.85 -0.3 16.25 -3.35 17.75 M-30.05 9.15 L-28.7 9.5 -27.75 12.0 -28.4 11.65 Q-29.7 10.75 -30.05 9.15 M47.2 11.2 L47.2 11.1 47.75 11.15 47.2 11.2 M29.8 12.65 L29.55 13.2 29.45 12.75 29.65 12.15 29.8 12.65 M29.75 20.3 L29.8 20.55 29.35 20.8 29.75 20.3 M33.0 34.3 L30.85 33.7 30.0 30.25 30.05 29.75 33.0 34.3 M30.35 28.0 L30.9 26.55 33.55 26.05 34.3 29.35 30.35 28.0 M27.95 27.0 L27.55 28.7 26.75 28.35 Q26.75 27.8 27.1 27.4 27.45 27.0 27.95 27.0 M17.65 21.0 L17.5 22.05 16.95 21.75 17.65 21.0 M13.1 24.05 L14.65 25.35 13.0 25.75 13.1 24.05 M16.35 29.15 L16.4 29.15 16.45 29.2 16.35 29.15 M17.4 28.95 L19.3 28.5 19.8 28.9 18.35 29.25 17.4 28.95 M22.75 23.15 L22.25 22.7 22.65 22.7 22.75 23.15 M38.05 16.1 Q38.65 14.6 39.75 13.6 L40.4 13.15 Q40.0 14.65 38.75 15.65 L38.05 16.1 M37.05 21.85 L37.05 21.75 37.1 21.7 37.05 21.85 M7.5 10.4 L6.5 11.45 5.9 11.2 6.35 9.85 7.5 10.4 M8.2 14.75 L9.35 15.55 9.4 16.0 6.45 14.9 5.65 13.85 8.2 14.75 M14.8 18.45 L15.85 18.95 15.15 19.55 14.9 19.0 14.8 18.45 M7.7 10.5 L9.45 11.35 9.35 12.1 7.7 10.5 M15.5 16.1 L18.5 17.45 18.45 17.55 15.5 16.1 M10.85 38.4 L9.9 40.05 8.85 39.0 9.3 38.35 8.25 36.4 10.85 38.4 M6.45 34.65 L5.85 35.55 5.4 34.9 5.75 33.85 6.45 34.65" fill="#707170" fill-rule="evenodd" stroke="none"/>
    <path d="M4.5 -49.8 L9.0 -49.25 9.15 -46.7 4.55 -47.0 4.5 -49.2 4.5 -49.8 M10.7 -48.95 L13.8 -48.2 14.05 -48.1 14.55 -47.95 15.6 -47.65 Q15.95 -46.45 16.7 -45.35 L17.3 -44.8 11.1 -46.4 10.7 -48.95 M18.3 -46.7 Q22.3 -45.15 26.05 -42.8 L21.35 -45.35 20.65 -45.7 20.2 -45.9 19.8 -46.05 19.4 -46.25 18.3 -46.7 M27.7 -41.7 L31.85 -38.55 31.8 -38.05 31.75 -37.35 31.6 -35.9 27.25 -36.3 27.7 -41.7 M36.55 -34.1 L39.1 -31.2 37.0 -29.15 36.65 -28.85 34.85 -29.95 34.45 -27.25 33.8 -26.75 Q30.65 -26.55 27.75 -27.6 L26.3 -28.3 26.3 -28.35 27.4 -29.85 27.1 -30.35 27.65 -33.8 31.4 -33.45 31.1 -31.0 31.0 -30.3 32.15 -31.2 33.45 -32.2 36.55 -34.1 M49.3 -8.75 L49.55 -7.15 49.75 -5.55 49.1 -4.9 46.1 -9.05 48.4 -9.3 49.2 -8.85 49.3 -8.75 M49.95 2.25 L49.95 2.9 46.75 3.5 48.25 -0.9 49.95 2.25 M48.75 11.75 L47.95 14.7 48.1 14.1 48.15 13.95 48.75 11.75 M46.25 19.45 L44.75 22.65 Q42.4 21.3 43.7 17.8 L44.75 18.5 45.05 19.15 46.25 19.45 M39.35 30.9 L37.6 32.95 Q38.55 30.3 37.7 27.45 L37.35 26.3 38.3 27.2 39.35 30.9 M33.3 37.25 Q30.7 39.6 27.95 41.55 L26.5 40.4 19.35 40.25 Q20.95 36.65 19.1 33.0 L18.5 31.9 Q21.35 31.9 23.5 29.95 L24.0 29.45 24.35 33.25 25.55 33.8 26.25 33.45 26.75 28.35 27.55 28.7 Q26.6 34.05 31.2 36.4 L32.3 36.9 33.3 37.25 M16.65 47.3 L13.3 48.35 7.9 49.45 12.15 48.6 6.35 42.6 6.1 43.8 Q5.4 47.25 3.3 49.9 L0.0 50.0 -2.85 49.95 Q-0.15 48.4 1.1 45.25 L1.3 44.7 0.9 42.1 Q0.0 37.4 -3.25 33.6 L-2.8 32.85 -3.25 31.75 Q-0.9 28.45 -2.65 24.9 L-1.9 22.55 -1.35 22.05 -0.9 19.8 Q1.15 18.9 2.25 16.9 L2.85 15.85 3.75 15.45 6.75 18.25 Q1.1 20.3 0.65 26.0 0.55 27.5 0.75 29.05 L2.5 37.35 2.95 37.8 Q5.9 43.5 12.15 44.05 L13.7 43.95 16.65 47.3 M-48.25 13.5 L-48.0 14.5 Q-49.6 9.05 -49.9 3.05 L-49.9 3.2 Q-49.6 8.55 -48.25 13.5 M-34.55 -36.15 L-31.3 -39.05 -29.95 -37.1 -28.75 -35.55 -29.55 -32.4 -31.5 -32.85 -30.05 -34.4 Q-31.0 -36.2 -33.15 -36.15 L-34.35 -35.9 -34.55 -36.15 M-30.6 -39.6 L-24.7 -43.6 -25.7 -42.9 -29.6 -39.6 -30.6 -39.6 M-13.05 -48.4 Q-6.85 -50.0 0.0 -50.0 L2.35 -49.95 0.05 -49.25 0.0 -47.7 0.0 -46.8 0.15 -44.85 -4.35 -44.95 -4.55 -47.75 -8.65 -46.2 -13.05 -48.4 M12.5 -43.75 Q17.65 -42.45 21.55 -38.75 L23.7 -36.7 20.85 -37.65 Q20.85 -38.05 20.35 -38.3 L19.1 -38.6 17.65 -39.3 Q14.6 -41.05 12.5 -43.75 M22.3 -34.15 L21.1 -31.75 18.85 -31.15 17.4 -32.15 16.45 -32.15 14.5 -30.6 Q12.25 -31.0 10.25 -32.5 L9.35 -33.25 Q9.35 -33.75 8.8 -34.05 L7.45 -34.4 5.55 -40.1 7.15 -42.35 10.7 -38.95 12.6 -33.9 20.25 -35.95 21.15 -35.6 Q22.4 -35.25 22.3 -34.15 M15.65 -27.65 L19.25 -26.5 17.7 -24.05 17.35 -23.8 15.6 -27.65 15.65 -27.65 M23.2 -23.65 L23.65 -22.8 23.0 -23.0 23.2 -23.65 M28.2 -21.6 L29.35 -21.35 29.3 -21.15 28.2 -21.6 M33.4 -20.0 L40.05 -15.2 39.85 -11.4 38.55 -10.25 38.65 -9.0 40.05 -8.5 41.1 -8.7 41.95 -9.7 42.7 -8.4 42.3 -7.3 38.15 -7.35 38.05 -7.6 38.0 -7.4 Q33.65 -8.4 31.55 -12.35 L31.0 -13.4 32.75 -14.7 33.5 -16.5 31.7 -19.35 33.4 -20.0 M40.55 -21.9 L39.8 -19.3 36.9 -21.2 40.1 -22.25 40.55 -21.9 M30.2 -23.85 L25.85 -24.45 25.05 -25.5 25.35 -25.75 30.75 -24.35 30.2 -23.85 M22.1 -42.1 L23.8 -41.0 26.0 -39.3 25.9 -38.15 22.1 -42.1 M27.95 -12.8 L27.8 -12.9 28.25 -12.9 27.95 -12.8 M19.7 -14.9 L18.9 -14.35 18.65 -13.6 16.3 -12.7 17.85 -16.2 19.7 -14.9 M15.6 -18.45 Q15.7 -15.35 13.3 -13.1 L12.75 -12.6 12.5 -12.9 10.1 -15.65 Q11.95 -18.35 9.4 -20.0 L8.7 -20.4 8.75 -20.85 12.15 -20.15 13.7 -18.45 14.35 -19.9 12.95 -20.15 13.65 -20.5 14.1 -21.95 10.35 -23.1 10.65 -24.3 8.8 -25.4 12.6 -27.4 15.45 -20.6 15.6 -18.45 M6.65 -8.1 L5.7 -7.6 5.5 -8.0 6.05 -8.4 6.65 -8.1 M4.65 -11.4 Q3.7 -11.4 3.0 -12.15 2.3 -12.9 2.3 -14.0 L4.8 -13.1 4.65 -11.4 M5.75 -28.55 L6.0 -26.85 2.65 -24.15 -8.3 -23.45 -8.2 -25.9 -3.25 -25.65 2.05 -25.45 -0.85 -30.65 1.85 -30.6 1.95 -28.4 5.75 -28.55 M-7.45 -32.45 L-6.7 -33.4 -3.45 -33.3 -3.7 -32.6 -3.8 -32.45 -5.2 -31.5 -7.45 -32.45 M-1.85 -33.2 L-0.55 -33.1 -1.8 -33.05 -1.85 -33.2 M2.4 -35.2 L-2.65 -35.7 -3.65 -39.9 -3.0 -40.7 -0.3 -39.4 0.25 -39.05 1.45 -38.0 2.4 -35.2 M-4.7 -35.8 L-5.4 -35.8 -5.25 -36.3 -4.7 -35.8 M-7.3 -38.05 L-8.05 -35.8 -11.7 -35.55 -15.05 -37.05 -13.95 -40.95 -12.1 -40.55 -8.6 -38.85 -7.3 -38.05 M-16.35 -41.95 L-17.6 -37.8 -21.4 -38.65 -19.25 -42.05 -17.4 -42.25 -16.35 -41.95 M-27.9 -0.5 L-26.55 1.85 -27.8 3.7 -29.15 3.2 -29.1 2.9 -27.9 -0.5 M-24.55 0.35 L-26.3 -2.9 -25.85 -3.4 -21.6 -7.15 -19.45 -8.1 Q-20.7 -4.2 -23.2 -1.15 L-24.55 0.35 M-13.25 -8.4 L-12.65 -7.8 -12.85 -7.5 -13.5 -7.5 -13.25 -8.4 M-8.5 -14.15 L-8.85 -14.4 -8.45 -14.5 -8.5 -14.15 M-3.75 -14.1 L-1.05 -13.7 1.65 -9.1 -2.25 -10.0 -4.9 -11.75 -3.75 -14.1 M-1.25 -1.8 L-3.75 -0.3 Q-2.9 -1.8 -3.0 -3.45 L-3.1 -4.25 -1.3 -1.9 -1.25 -1.8 M-5.85 1.6 L-5.8 2.25 -8.95 3.85 -8.5 1.2 -6.6 1.7 -5.85 1.6 M-23.85 10.55 L-27.35 12.85 -27.75 12.0 -28.7 9.5 Q-26.9 9.7 -25.3 8.85 L-24.55 8.35 -23.85 10.55 M-26.0 15.25 L-22.85 12.55 -22.15 13.65 -20.0 16.3 -16.8 19.2 -16.65 22.5 -18.2 23.35 -19.3 22.6 -20.55 21.6 -26.0 15.25 M-14.3 21.4 L-14.05 14.4 -12.5 13.55 -10.45 15.05 -10.05 11.35 -8.75 11.25 Q-10.4 16.65 -6.45 20.55 -6.65 21.55 -6.25 22.65 L-5.35 24.7 -13.0 24.55 -12.75 23.55 -8.3 22.75 Q-8.75 21.7 -9.95 21.1 -12.15 19.95 -14.3 21.4 M-11.3 27.2 L-4.15 27.1 -5.65 30.6 -6.35 29.8 -11.3 27.2 M2.95 15.0 Q2.95 14.15 2.45 13.6 1.9 13.0 1.2 13.0 L0.7 11.2 3.0 12.6 3.55 15.05 2.95 15.0 M-5.3 11.1 L-6.1 11.9 -5.25 10.85 -5.3 11.1 M6.35 25.4 L7.6 26.3 6.35 29.1 5.65 29.05 4.0 25.9 6.65 26.25 6.35 25.4 M16.5 33.15 Q17.8 35.65 17.3 38.4 L17.05 39.7 16.15 39.35 15.05 40.45 14.7 40.95 Q11.05 41.2 8.05 39.55 L6.5 38.65 7.4 37.45 8.85 39.0 9.9 40.05 10.85 38.4 12.35 38.75 12.7 38.5 12.55 36.35 16.5 33.15 M25.45 24.45 L25.2 22.4 26.4 21.95 25.3 20.85 24.95 17.4 Q30.3 12.55 26.5 6.3 L26.0 5.55 32.55 8.7 29.8 12.65 29.65 12.15 29.45 12.75 29.55 13.2 Q28.95 16.0 29.45 18.95 L29.75 20.3 29.35 20.8 29.8 20.55 29.85 20.7 Q30.1 21.7 31.2 22.0 L31.85 22.05 29.65 24.0 29.1 23.15 27.5 22.5 25.45 24.45 M19.75 0.05 L14.15 -1.7 13.9 -1.9 8.2 -6.2 12.8 -8.35 15.8 -6.0 15.85 -6.0 Q16.35 -3.65 18.05 -2.0 L18.85 -1.25 19.75 0.05 M16.95 1.45 Q24.85 4.55 25.15 12.95 L25.05 14.55 19.4 14.95 21.45 11.15 21.6 10.9 22.05 10.25 16.95 1.45 M14.65 11.4 L14.25 13.5 13.7 13.7 12.7 11.15 13.05 10.8 13.15 10.35 9.2 7.85 8.7 6.4 10.0 6.35 10.05 6.8 Q11.8 8.6 14.25 9.05 L14.65 11.4 M4.6 8.35 L3.55 10.05 1.65 8.9 Q1.6 6.7 0.35 5.0 L-1.1 3.4 -0.75 2.05 0.7 1.1 1.65 2.6 1.15 3.65 2.45 5.1 3.4 5.75 4.6 8.35 M4.6 -1.65 L6.5 -3.3 6.4 -5.25 7.2 -5.7 10.4 -0.8 10.45 -0.7 11.85 2.35 Q10.4 3.45 8.65 3.9 L7.75 3.9 6.45 1.3 4.6 -1.65 M21.1 -9.35 Q21.1 -10.2 20.75 -10.8 20.35 -11.4 19.85 -11.4 L19.8 -11.45 23.25 -12.25 25.5 -11.35 25.45 -9.3 Q25.05 -5.95 21.55 -6.75 L21.1 -9.35 M31.3 -3.4 L31.45 -0.95 30.7 -0.35 22.7 -3.4 24.5 -4.45 26.7 -3.1 27.4 -5.35 28.75 -5.95 30.2 -5.1 30.7 -4.45 30.9 -3.7 Q31.05 -3.4 31.3 -3.4 M28.95 2.3 Q31.3 2.45 33.0 0.8 L33.75 0.0 Q34.45 -1.75 33.95 -3.65 L33.65 -4.65 35.5 -5.55 Q39.95 -3.15 43.95 -5.85 L44.75 -6.4 46.2 -4.5 43.6 -4.1 44.55 -0.45 45.3 -0.65 44.05 4.05 43.5 3.3 Q42.1 1.6 40.1 1.0 L39.25 0.75 38.05 1.5 38.2 2.7 39.2 3.35 37.95 3.6 37.45 4.15 34.2 6.75 27.85 3.8 28.3 3.65 28.95 2.3 M42.55 6.65 L43.25 8.6 42.25 7.95 42.55 6.65 M0.55 -41.95 L0.6 -41.85 0.4 -41.95 0.55 -41.95 M19.8 -20.35 L25.05 -19.9 24.8 -16.8 22.35 -16.65 22.3 -16.65 19.8 -20.35 M27.5 -19.15 L28.6 -18.6 28.35 -17.95 29.1 -18.25 29.75 -17.8 Q29.15 -17.8 28.75 -17.2 28.3 -16.65 28.3 -15.85 L26.9 -15.85 27.5 -19.15 M6.1 -20.35 L5.8 -20.7 4.45 -20.75 5.05 -21.35 6.15 -21.25 6.1 -20.35 M-8.4 -21.15 L0.5 -21.35 0.25 -20.95 -2.45 -21.0 -8.4 -21.15 M13.45 4.15 Q13.95 4.15 14.3 4.85 L14.6 6.45 12.75 5.7 13.05 4.3 13.45 4.15 M35.95 -11.0 L37.8 -8.4 36.7 -11.6 35.95 -11.0 M-25.2 -36.3 L-26.4 -36.45 -26.55 -36.9 -25.2 -36.3 M-26.25 -34.15 L-24.45 -33.6 Q-24.45 -33.1 -25.1 -32.75 L-26.65 -32.45 -26.25 -34.15 M-14.1 -25.65 L-12.9 -26.15 -13.15 -23.85 -14.1 -25.65 M-26.6 -39.45 L-23.15 -41.2 -23.05 -41.2 -24.05 -39.1 -26.6 -39.45 M-6.05 -1.25 L-6.4 -1.15 -6.7 -1.25 -6.85 -1.6 -6.7 -1.9 -6.4 -2.05 -6.05 -1.9 -5.95 -1.6 -6.05 -1.25 M-9.45 6.95 L-5.75 5.0 -5.8 5.5 -6.3 6.05 -6.4 8.2 -9.65 8.45 -9.45 6.95 M41.05 12.0 L41.45 12.55 41.85 15.15 Q38.3 19.8 32.5 18.15 L31.5 17.7 Q31.75 14.1 33.7 11.05 L35.85 17.5 37.1 16.7 38.05 16.1 38.75 15.65 Q40.0 14.65 40.4 13.15 L41.05 12.0 M38.3 6.75 L36.9 7.45 37.85 6.6 38.3 6.75 M47.65 13.45 L45.75 11.85 45.85 10.9 47.2 11.1 47.2 11.2 47.65 13.45 M34.45 25.55 Q35.7 28.3 35.4 31.25 L35.15 32.65 34.3 29.35 33.55 26.05 34.45 25.55 M30.85 33.7 L30.0 32.8 30.0 30.25 30.85 33.7 M22.2 21.6 L22.25 22.7 22.75 23.15 Q22.75 25.55 21.9 27.25 21.0 28.9 19.8 28.9 L19.3 28.5 17.4 28.95 16.4 29.15 16.35 29.15 13.0 26.6 13.0 25.75 14.65 25.35 13.1 24.05 14.0 21.3 Q14.7 24.85 18.0 25.75 L18.65 25.8 Q19.1 23.2 16.95 21.75 L17.5 22.05 17.65 21.0 Q18.55 21.0 19.2 20.25 19.85 19.5 19.85 18.4 L22.2 21.6 M37.05 21.85 L36.8 24.55 34.8 21.35 37.25 21.05 37.1 21.7 37.05 21.75 37.05 21.85 M9.35 15.55 L9.7 15.75 9.4 16.0 9.35 15.55 M12.9 17.5 L14.8 18.45 14.9 19.0 Q10.4 21.1 10.3 26.1 L10.35 27.35 9.8 27.7 Q10.75 23.7 9.45 19.8 L10.0 19.05 10.65 18.9 Q11.85 18.9 12.5 18.1 L12.9 17.5 M9.45 11.35 L10.35 12.85 9.35 12.1 9.45 11.35 M18.5 17.45 L19.15 17.85 18.45 17.55 18.5 17.45 M5.85 35.55 L6.65 36.6 5.25 35.65 5.4 34.9 5.85 35.55 M20.5 35.85 L24.95 36.3 23.15 33.0 20.5 35.85" fill="#a6a6a6" fill-rule="evenodd" stroke="none"/>
    <path d="M26.05 -42.8 L26.6 -42.45 27.1 -42.1 27.4 -41.9 27.45 -41.9 26.15 -42.3 19.5 -43.7 22.1 -42.1 25.9 -38.15 27.25 -36.3 31.6 -35.9 Q32.7 -35.9 33.35 -35.5 L33.9 -34.95 33.95 -34.65 33.95 -34.6 Q33.85 -34.1 33.1 -33.75 L31.4 -33.45 27.65 -33.8 27.1 -30.35 27.4 -29.85 26.3 -28.35 26.25 -28.3 26.3 -28.3 27.75 -27.6 Q30.65 -26.55 33.8 -26.75 L34.65 -26.7 37.9 -23.8 30.75 -24.35 25.35 -25.75 24.15 -26.4 25.05 -25.5 25.85 -24.45 30.2 -23.85 36.75 -21.3 36.9 -21.2 39.8 -19.3 40.55 -21.9 42.7 -20.2 40.05 -15.2 33.4 -20.0 29.35 -21.35 28.2 -21.6 23.65 -22.8 23.2 -23.65 Q21.25 -25.25 19.0 -24.6 L17.7 -24.05 19.25 -26.5 15.65 -27.65 Q17.6 -27.8 19.05 -29.3 L19.7 -30.0 21.35 -30.0 21.1 -31.75 22.3 -34.15 24.3 -35.55 23.7 -36.7 21.55 -38.75 Q17.65 -42.45 12.5 -43.75 L9.6 -43.8 2.75 -44.8 2.35 -45.95 2.95 -46.9 4.55 -47.0 9.15 -46.7 11.1 -46.4 17.3 -44.8 17.65 -45.6 19.25 -46.0 20.6 -45.7 20.65 -45.7 21.35 -45.35 26.05 -42.8 M41.5 -28.05 L43.15 -25.5 43.35 -25.15 43.6 -24.75 47.3 -16.65 47.5 -16.1 Q46.65 -14.25 44.45 -12.85 L46.1 -9.05 49.1 -4.9 49.9 -3.25 50.0 0.0 49.95 2.25 48.25 -0.9 46.75 3.5 46.7 8.6 47.5 8.45 49.55 7.3 48.9 10.95 47.75 11.15 47.2 11.1 45.85 10.9 45.75 11.85 47.65 13.45 48.1 14.1 47.95 14.7 47.9 14.85 47.2 16.95 47.2 17.05 47.0 17.5 46.95 17.65 44.0 13.75 44.15 13.3 Q45.05 10.65 43.25 8.6 L42.55 6.65 42.65 4.95 39.2 3.35 38.2 2.7 38.05 1.5 39.25 0.75 40.1 1.0 Q42.1 1.6 43.5 3.3 L44.05 4.05 45.3 -0.65 47.2 -3.3 46.2 -4.5 44.75 -6.4 43.95 -5.85 Q39.95 -3.15 35.5 -5.55 L32.65 -7.2 33.65 -4.65 33.95 -3.65 Q34.45 -1.75 33.75 0.0 L33.0 0.8 Q31.3 2.45 28.95 2.3 L28.25 1.05 30.95 1.7 31.6 0.9 31.5 0.0 30.7 -0.35 31.45 -0.95 31.3 -3.4 31.05 -4.55 30.65 -5.7 29.95 -6.9 Q28.2 -9.55 25.5 -11.35 L23.25 -12.25 19.8 -11.45 19.85 -11.4 Q20.35 -11.4 20.75 -10.8 21.1 -10.2 21.1 -9.35 L18.5 -7.55 18.5 -5.15 19.65 -3.95 19.1 -3.8 18.65 -3.3 18.85 -1.25 18.05 -2.0 Q16.35 -3.65 15.85 -6.0 16.1 -7.7 17.1 -9.15 L18.55 -10.9 14.95 -9.4 12.8 -8.35 8.2 -6.2 7.2 -5.7 6.4 -5.25 6.5 -3.3 4.6 -1.65 0.7 1.1 -0.75 2.05 -1.1 3.4 0.35 5.0 Q1.6 6.7 1.65 8.9 L3.55 10.05 4.6 8.35 6.0 7.25 7.45 7.4 9.2 7.85 13.15 10.35 13.05 10.8 12.7 11.15 13.7 13.7 14.25 13.5 14.65 11.4 15.9 9.15 18.3 8.45 18.4 8.0 18.95 8.35 19.15 8.75 19.1 9.25 18.0 10.3 17.0 14.05 19.4 14.95 25.05 14.55 25.15 12.95 Q24.85 4.55 16.95 1.45 L12.7 0.1 12.6 -0.7 13.2 -1.65 13.75 -1.75 14.15 -1.7 19.75 0.05 22.8 2.05 22.95 2.2 23.75 2.9 Q23.75 4.0 24.4 4.8 25.05 5.55 26.0 5.55 L26.5 6.3 Q30.3 12.55 24.95 17.4 L22.95 17.85 24.55 20.6 25.2 22.4 25.45 24.45 24.3 25.25 24.0 29.45 23.5 29.95 Q21.35 31.9 18.5 31.9 L19.1 33.0 Q20.95 36.65 19.35 40.25 L19.1 41.05 Q18.55 42.6 16.75 43.3 L13.7 43.95 12.15 44.05 Q5.9 43.5 2.95 37.8 L6.1 38.8 6.5 38.65 8.05 39.55 Q11.05 41.2 14.7 40.95 L15.0 40.9 16.45 40.55 Q17.05 40.2 17.05 39.7 L17.3 38.4 Q17.8 35.65 16.5 33.15 L14.1 31.05 9.05 31.7 7.75 32.3 5.65 29.05 6.35 29.1 7.6 26.3 6.35 25.4 5.8 24.75 5.7 22.65 5.85 21.5 4.0 22.7 3.15 23.9 1.85 23.3 Q0.55 25.45 0.65 27.9 L0.75 29.05 Q0.55 27.5 0.65 26.0 1.1 20.3 6.75 18.25 L3.75 15.45 3.55 15.05 3.0 12.6 0.7 11.2 0.1 10.8 -2.45 11.3 -5.25 10.85 -6.1 11.9 -5.3 11.1 -1.5 12.1 -0.75 12.75 1.2 13.0 Q1.9 13.0 2.45 13.6 2.95 14.15 2.95 15.0 L2.85 15.85 2.25 16.9 Q1.15 18.9 -0.9 19.8 L-1.35 22.05 -1.9 22.55 -2.65 24.9 Q-0.9 28.45 -3.25 31.75 L-2.8 32.85 -3.25 33.6 -4.7 33.45 -5.45 32.9 -5.75 31.5 -5.65 30.6 -4.15 27.1 -11.3 27.2 -11.5 27.2 -15.2 27.3 Q-13.9 26.6 -13.25 25.25 L-13.0 24.55 -5.35 24.7 -6.25 22.65 Q-6.65 21.55 -6.45 20.55 -10.4 16.65 -8.75 11.25 L-10.05 11.35 -14.35 10.7 -14.05 14.4 -14.3 21.4 -16.65 22.5 -16.8 19.2 Q-16.0 15.3 -16.8 11.55 L-17.65 11.15 -18.15 10.9 -19.35 11.35 -22.85 12.55 -26.0 15.25 -27.45 15.3 -27.35 12.85 -23.85 10.55 -20.85 9.15 -24.1 6.0 -24.6 6.75 -25.0 7.2 Q-34.35 5.9 -41.2 -0.4 L-42.1 -0.4 -43.7 -0.4 -41.85 2.7 Q-35.35 13.35 -26.8 22.15 L-29.0 25.25 -30.3 26.05 Q-28.3 27.35 -26.1 27.7 L-25.0 27.65 -24.45 28.75 -24.8 29.45 -30.1 29.25 -31.05 28.7 -33.5 26.1 -31.55 23.9 -30.8 23.55 -30.4 22.85 -32.25 21.25 Q-34.95 18.85 -37.1 15.8 L-38.8 12.3 -39.7 7.55 -41.35 6.95 -43.1 5.85 Q-44.3 5.0 -45.0 3.45 -46.55 0.25 -44.55 -2.9 L-42.85 -2.7 Q-37.3 -1.9 -33.3 2.05 L-29.35 3.1 -29.15 3.2 -27.8 3.7 -27.45 5.25 -26.7 6.45 -26.2 6.9 -24.65 6.35 -24.25 5.7 -25.1 4.25 -23.35 2.6 -22.95 3.15 -22.2 4.25 Q-20.6 6.45 -18.4 7.95 L-18.3 6.1 Q-17.75 2.15 -14.85 -0.6 L-12.8 -1.3 -12.45 -1.25 -11.4 -0.4 -11.4 0.55 -12.0 1.1 -12.15 1.15 -13.4 1.35 -13.9 1.9 -16.25 7.0 -15.85 7.3 -11.1 5.1 -9.9 4.4 -8.95 3.85 -5.8 2.25 -5.85 1.6 Q-5.0 1.6 -4.35 1.05 -3.75 0.5 -3.75 -0.3 L-1.25 -1.8 1.25 -4.35 -5.9 -9.6 -6.3 -10.3 -4.9 -11.75 -2.25 -10.0 3.45 -6.1 3.15 -6.7 2.7 -7.5 1.65 -9.1 -1.05 -13.7 -3.75 -14.1 -4.05 -15.75 -6.8 -16.15 -7.45 -15.55 -8.75 -16.3 -10.75 -17.7 -11.85 -16.75 -9.25 -14.65 -8.85 -14.4 -8.5 -14.15 Q-8.5 -13.4 -9.0 -12.85 -9.55 -12.35 -10.3 -12.35 L-13.5 -14.5 -11.35 -10.05 -11.3 -9.45 -12.65 -7.8 -13.25 -8.4 -13.8 -9.05 -15.9 -14.35 -26.85 -8.35 -28.0 -7.0 -26.7 -3.6 -26.4 -3.1 -26.3 -2.9 -24.55 0.35 -26.55 1.85 -27.9 -0.5 -28.5 -1.55 -29.25 -2.9 Q-30.6 -5.65 -29.85 -8.75 L-22.25 -14.1 -21.95 -14.75 -16.4 -17.1 -15.35 -18.25 -13.95 -20.95 -14.4 -21.5 -16.15 -24.4 -17.95 -30.05 -22.5 -32.45 -23.35 -33.25 -17.65 -31.0 -16.6 -32.45 -18.05 -33.65 -18.05 -34.25 -17.6 -37.8 -16.35 -41.95 -16.3 -42.1 -16.25 -42.2 Q-15.3 -42.2 -14.6 -41.8 -13.95 -41.45 -13.95 -40.95 L-15.05 -37.05 -12.8 -34.7 -11.7 -35.55 -8.05 -35.8 -7.3 -38.05 -7.25 -40.1 -4.8 -39.7 -5.25 -36.3 -5.4 -35.8 -4.7 -35.8 -2.65 -35.7 2.4 -35.2 2.2 -37.2 1.45 -38.0 0.25 -39.05 Q3.75 -38.5 5.85 -41.35 L6.4 -42.2 7.15 -42.35 5.55 -40.1 4.9 -37.95 6.4 -34.95 6.65 -34.35 2.5 -33.65 -0.55 -33.1 -1.85 -33.2 -3.45 -33.3 -6.7 -33.4 -7.45 -32.45 -9.1 -31.2 -8.2 -25.9 -8.3 -23.45 2.65 -24.15 6.0 -26.85 5.75 -28.55 Q9.7 -27.5 13.7 -27.6 L15.6 -27.65 17.35 -23.8 15.45 -20.6 12.6 -27.4 8.8 -25.4 10.65 -24.3 10.35 -23.1 14.1 -21.95 13.65 -20.5 12.95 -20.15 12.15 -20.15 8.75 -20.85 8.7 -20.4 5.15 -14.9 2.3 -14.0 Q2.3 -12.9 3.0 -12.15 3.7 -11.4 4.65 -11.4 L4.35 -8.1 4.95 -7.8 5.5 -8.0 5.7 -7.6 6.65 -8.1 Q8.7 -7.1 10.1 -9.0 L10.45 -9.65 11.6 -10.1 11.95 -10.85 11.45 -11.7 12.75 -12.6 13.3 -13.1 Q15.7 -15.35 15.6 -18.45 L17.85 -16.2 16.3 -12.7 18.65 -13.6 18.9 -14.35 19.7 -14.9 Q22.5 -13.2 26.1 -12.9 L27.8 -12.9 27.95 -12.8 29.05 -11.95 28.65 -12.95 31.0 -13.4 31.55 -12.35 Q33.65 -8.4 38.0 -7.4 L38.15 -7.35 42.3 -7.3 42.7 -8.4 42.75 -9.15 42.15 -10.0 43.0 -15.8 43.35 -15.45 45.05 -15.55 45.3 -16.4 Q45.8 -18.25 45.1 -19.95 L45.1 -21.4 38.3 -26.7 38.95 -26.7 37.95 -26.95 36.65 -28.85 37.0 -29.15 39.85 -28.8 41.5 -28.05 M42.75 26.1 L41.0 28.75 Q39.5 28.3 38.3 27.2 L37.35 26.3 37.7 27.45 Q38.55 30.3 37.6 32.95 L35.35 35.35 33.95 36.7 33.6 36.85 32.3 36.9 31.2 36.4 Q26.6 34.05 27.55 28.7 L27.95 27.0 30.9 26.55 30.35 28.0 30.05 29.75 30.0 30.25 30.0 32.8 30.85 33.7 33.0 34.3 34.55 33.85 Q35.15 33.35 35.15 32.65 L35.4 31.25 Q35.7 28.3 34.45 25.55 L34.8 24.3 34.25 23.5 29.65 24.0 31.85 22.05 31.2 22.0 Q30.1 21.7 29.85 20.7 L29.8 20.55 29.75 20.3 29.45 18.95 Q28.95 16.0 29.55 13.2 L29.8 12.65 32.55 8.7 34.75 9.75 33.7 11.05 Q31.75 14.1 31.5 17.7 L32.5 18.15 Q38.3 19.8 41.85 15.15 L43.5 17.55 Q39.35 20.3 39.5 25.25 L40.45 25.55 42.75 26.1 M-18.45 -46.65 L-13.05 -48.4 -8.65 -46.2 -7.1 -45.0 -7.8 -44.9 -8.4 -42.85 -11.25 -45.15 -12.65 -43.8 -20.85 -44.1 -17.4 -46.65 -18.45 -46.65 M24.6 -30.95 L25.2 -33.05 23.7 -30.6 24.0 -30.2 24.6 -30.95 M9.35 -33.25 L10.25 -32.5 Q12.25 -31.0 14.5 -30.6 11.5 -30.1 8.45 -30.6 L6.45 -31.15 6.3 -31.65 7.2 -31.6 7.95 -31.8 8.65 -32.2 9.35 -32.65 9.35 -33.25 M1.0 -41.6 L0.1 -40.95 Q-0.3 -40.3 -0.3 -39.4 L-3.0 -40.7 -2.85 -41.15 -3.0 -41.6 -5.65 -42.45 0.4 -41.95 0.6 -41.85 1.0 -41.6 M22.3 -16.65 L18.0 -19.65 18.05 -20.4 19.8 -20.35 22.3 -16.65 M25.05 -19.9 L27.5 -19.15 26.9 -15.85 22.35 -16.65 24.8 -16.8 25.05 -19.9 M29.75 -17.8 L30.7 -16.15 28.3 -15.85 Q28.3 -16.65 28.75 -17.2 29.15 -17.8 29.75 -17.8 M6.1 -20.35 L6.15 -21.25 5.05 -21.35 4.45 -20.75 2.55 -16.55 3.95 -16.95 Q6.45 -17.7 6.1 -20.35 M0.25 -20.95 L0.5 -21.35 -8.4 -21.15 -9.1 -19.55 -7.6 -18.45 Q-4.55 -16.45 -1.15 -16.45 L-0.65 -18.85 0.25 -20.95 M-44.65 -17.1 L-43.75 -17.4 Q-40.0 -18.4 -38.35 -21.7 L-36.9 -20.7 -37.05 -19.7 -39.75 -16.85 -42.65 -14.7 -42.0 -12.9 -42.4 -12.25 Q-43.0 -11.4 -43.7 -11.3 L-45.0 -11.35 -46.2 -13.1 -46.15 -14.0 Q-45.95 -15.8 -44.65 -17.1 M-34.3 -21.6 L-32.75 -24.0 -31.35 -23.55 -31.15 -22.2 Q-30.55 -16.85 -34.65 -13.3 L-37.1 -13.5 -37.15 -14.0 -36.45 -15.15 -34.9 -15.4 -34.55 -16.3 Q-33.65 -18.8 -34.3 -21.6 M-19.25 -42.05 L-21.4 -38.65 -21.95 -35.5 -24.6 -36.2 -24.05 -39.1 -23.05 -41.2 -19.25 -42.05 M-26.4 -36.45 L-27.7 -36.2 Q-28.25 -35.95 -28.4 -35.55 L-28.35 -34.85 -27.45 -34.3 -26.25 -34.15 -26.65 -32.45 Q-29.6 -25.15 -37.6 -24.75 L-37.45 -25.95 -37.05 -26.4 -35.25 -27.75 -29.55 -32.4 -28.75 -35.55 -29.95 -37.1 -29.6 -39.6 -25.7 -42.9 -25.6 -41.75 -25.15 -41.35 -23.15 -41.2 -26.6 -39.45 -27.3 -38.25 -26.55 -36.9 -26.4 -36.45 M-12.9 -26.15 L-13.2 -29.9 -15.2 -29.55 -14.1 -25.65 -13.15 -23.85 -12.9 -26.15 M-13.35 -4.8 L-14.5 -5.0 Q-15.05 -5.25 -15.25 -5.65 -15.5 -6.05 -15.3 -6.5 L-14.65 -7.2 -13.5 -7.5 -12.85 -7.5 -13.35 -4.8 M-9.65 8.45 L-6.4 8.2 -6.3 6.05 -5.8 5.5 -5.75 5.0 -9.45 6.95 -12.55 8.5 -9.65 8.45 M-20.6 25.55 L-20.15 27.2 Q-19.7 27.85 -19.05 27.85 L-23.75 28.65 -23.8 26.8 -20.6 25.55 M-3.35 17.75 L-0.3 16.25 -0.7 15.85 -4.05 13.6 -5.25 16.55 -3.35 17.75 M-25.15 38.45 Q-26.2 35.7 -25.2 32.9 -24.35 30.65 -22.25 29.0 L-21.0 30.45 Q-22.6 32.45 -23.15 34.9 L-23.5 36.45 -20.4 40.85 -19.05 42.5 -20.1 43.45 -21.25 42.85 Q-23.75 41.5 -25.05 38.65 L-25.15 38.45 M-2.0 40.25 L-1.0 41.5 Q0.45 43.7 0.5 46.3 L-0.5 47.25 -1.3 47.35 -3.2 41.0 -2.0 40.25 M41.05 11.7 L41.5 10.85 41.85 11.2 41.45 12.55 41.05 12.0 41.05 11.7 M39.9 6.55 L38.3 6.75 37.85 6.6 36.9 7.45 36.4 7.95 34.2 6.75 37.45 4.15 Q37.45 5.15 38.2 5.85 38.9 6.55 39.9 6.55 M22.2 21.6 L19.85 18.4 19.15 17.85 18.5 17.45 15.5 16.1 10.35 12.85 9.45 11.35 7.7 10.5 7.55 10.35 7.5 10.4 6.35 9.85 5.9 11.2 6.5 11.45 Q6.6 12.75 7.4 13.8 L8.2 14.75 5.65 13.85 6.45 14.9 9.4 16.0 9.7 15.75 12.9 17.5 12.5 18.1 Q11.85 18.9 10.65 18.9 L10.0 19.05 9.45 19.8 Q10.75 23.7 9.8 27.7 L10.35 27.35 10.3 26.1 Q10.4 21.1 14.9 19.0 L15.15 19.55 14.0 21.3 13.1 24.05 13.0 25.75 13.0 26.6 16.35 29.15 16.45 29.2 18.35 29.25 19.8 28.9 Q21.0 28.9 21.9 27.25 22.75 25.55 22.75 23.15 L22.65 22.7 22.2 21.6 M37.1 21.7 L37.25 21.05 34.8 21.35 36.8 24.55 37.05 21.85 37.1 21.7 M5.4 34.9 L5.25 35.65 4.05 31.7 5.75 33.85 5.4 34.9" fill="#b2b3b3" fill-rule="evenodd" stroke="none"/>
    <path d="M44.75 22.65 L42.75 26.1 40.45 25.55 39.5 25.25 Q39.35 20.3 43.5 17.55 L43.7 17.8 Q42.4 21.3 44.75 22.65 M-2.85 49.95 Q-8.75 49.65 -14.1 48.1 L-14.65 47.25 -16.75 47.25 Q-20.65 45.9 -24.25 43.85 L-23.6 42.65 -26.25 42.7 -27.35 41.95 Q-28.7 39.45 -30.75 37.4 L-31.8 36.3 -34.1 36.55 -34.15 36.55 -34.75 35.95 -35.35 35.35 Q-38.25 32.45 -40.55 29.35 -36.8 25.75 -32.2 28.1 L-31.05 28.7 -30.1 29.25 -26.8 31.95 Q-26.9 34.0 -26.15 35.95 L-25.15 38.45 -25.05 38.65 Q-23.75 41.5 -21.25 42.85 L-20.1 43.45 -19.05 42.5 -20.4 40.85 Q-15.6 41.65 -10.8 41.05 L-9.5 40.75 -7.4 38.2 Q-5.75 36.35 -3.6 35.2 L-4.7 33.45 -3.25 33.6 Q0.0 37.4 0.9 42.1 L1.3 44.7 0.8 44.9 1.1 45.25 Q-0.15 48.4 -2.85 49.95 M0.3 -46.85 L1.4 -46.5 4.5 -49.2 4.55 -47.0 2.95 -46.9 2.35 -45.95 2.75 -44.8 0.15 -44.85 0.0 -46.8 0.3 -46.85 M9.6 -43.8 L12.5 -43.75 Q14.6 -41.05 17.65 -39.3 L19.1 -38.6 Q14.8 -39.65 11.35 -42.4 L9.6 -43.8 M23.7 -36.7 L24.3 -35.55 22.3 -34.15 Q22.4 -35.25 21.15 -35.6 L20.25 -35.95 12.6 -33.9 10.7 -38.95 Q14.1 -36.75 17.9 -36.4 L20.45 -36.4 20.85 -37.65 23.7 -36.7 M2.3 -14.0 L5.15 -14.9 4.8 -13.1 2.3 -14.0 M-8.2 -25.9 L-9.1 -31.2 -7.45 -32.45 -5.2 -31.5 -6.2 -28.0 -5.15 -26.85 Q-3.65 -26.1 -2.65 -27.25 L-3.55 -29.5 -3.0 -29.85 Q-2.15 -28.15 -2.9 -26.4 L-3.25 -25.65 -8.2 -25.9 M-7.25 -40.1 L-7.3 -38.05 -8.6 -38.85 -7.85 -40.15 -7.25 -40.1 M-29.85 -8.75 Q-30.6 -5.65 -29.25 -2.9 L-28.5 -1.55 -29.25 -1.0 -32.85 -1.15 Q-34.15 -5.45 -30.7 -8.1 L-29.85 -8.75 M-13.8 -9.05 L-13.25 -8.4 -13.5 -7.5 -14.65 -7.2 -15.3 -6.5 Q-15.5 -6.05 -15.25 -5.65 -15.05 -5.25 -14.5 -5.0 L-13.35 -4.8 -14.65 -3.15 -15.45 -3.1 -17.5 -5.45 -16.6 -7.85 -18.1 -8.45 -18.55 -8.55 -18.95 -8.4 -19.45 -8.1 -21.6 -7.15 Q-18.7 -10.45 -14.7 -9.4 L-13.8 -9.05 M-8.95 3.85 L-9.9 4.4 -12.15 1.2 -12.0 1.1 -11.4 0.55 -11.4 -0.4 -12.45 -1.25 -11.8 -2.4 -11.55 -2.85 -9.5 -1.45 -9.5 0.05 -8.5 1.2 -8.95 3.85 M-43.1 5.85 L-41.35 6.95 -38.8 12.3 -37.1 15.8 -34.65 20.9 -34.95 21.5 -36.5 22.6 -38.2 21.15 Q-45.1 15.0 -43.1 5.85 M-42.1 -0.4 L-41.2 -0.4 Q-34.35 5.9 -25.0 7.2 L-24.6 6.75 -24.55 8.35 -25.3 8.85 Q-26.9 9.7 -28.7 9.5 L-30.05 9.15 -31.8 8.75 Q-38.9 6.5 -42.1 -0.4 M23.75 2.9 L22.95 2.2 23.0 2.1 23.75 2.3 23.75 2.9 M13.75 -1.75 L13.2 -1.65 12.6 -0.7 12.7 0.1 16.95 1.45 22.05 10.25 21.6 10.9 19.85 9.8 21.45 11.15 19.4 14.95 17.0 14.05 18.0 10.3 19.1 9.25 19.15 8.75 18.95 8.35 18.4 8.0 18.3 7.15 14.6 6.45 14.3 4.85 Q13.95 4.15 13.45 4.15 14.8 3.7 15.3 2.5 L15.6 1.95 14.25 0.75 11.85 2.35 10.45 -0.7 10.45 -0.75 10.4 -0.8 7.2 -5.7 8.2 -6.2 13.9 -1.9 13.75 -1.75 M15.9 9.15 L14.65 11.4 14.25 9.05 15.9 9.15 M7.45 7.4 L6.0 7.25 4.6 8.35 3.4 5.75 6.8 6.35 7.45 7.4 M0.7 1.1 L4.6 -1.65 6.45 1.3 5.55 1.55 5.2 1.95 5.7 3.85 Q4.65 3.15 3.35 2.8 L1.65 2.6 0.7 1.1 M12.8 -8.35 L14.95 -9.4 15.8 -6.0 12.8 -8.35 M19.65 -3.95 L18.5 -5.15 18.5 -7.55 21.1 -9.35 21.55 -6.75 Q25.05 -5.95 25.45 -9.3 L25.5 -11.35 Q28.2 -9.55 29.95 -6.9 L30.65 -5.7 30.2 -5.1 28.75 -5.95 27.4 -5.35 26.7 -3.1 24.5 -4.45 22.7 -3.4 19.65 -3.95 M0.55 -41.95 Q0.75 -41.8 1.0 -41.6 L0.6 -41.85 0.55 -41.95 M12.5 -12.9 L11.1 -11.95 9.3 -12.45 8.55 -12.4 10.1 -15.65 12.5 -12.9 M4.45 -20.75 L5.8 -20.7 6.1 -20.35 Q6.45 -17.7 3.95 -16.95 L2.55 -16.55 4.45 -20.75 M-0.65 -18.85 L-1.15 -16.45 Q-4.55 -16.45 -7.6 -18.45 L-9.1 -19.55 -8.4 -21.15 -2.45 -21.0 -0.65 -18.85 M-8.65 -46.2 L-4.55 -47.75 -4.35 -44.95 -7.1 -45.0 -8.65 -46.2 M-8.4 -42.85 L-12.65 -43.8 -11.25 -45.15 -8.4 -42.85 M-2.0 40.25 L-3.2 41.0 -1.3 47.35 -0.5 47.25 0.5 46.3 Q0.45 43.7 -1.0 41.5 L-2.0 40.25 M41.5 10.85 L41.05 11.7 37.1 11.95 37.1 16.7 35.85 17.5 33.7 11.05 34.75 9.75 37.35 11.0 38.5 9.65 36.4 7.95 36.9 7.45 38.3 6.75 39.9 6.55 Q39.6 8.5 40.85 10.15 L41.5 10.85 M35.15 32.65 Q35.15 33.35 34.55 33.85 L33.0 34.3 30.05 29.75 30.35 28.0 34.3 29.35 35.15 32.65" fill="#878582" fill-rule="evenodd" stroke="none"/>
    <path d="M46.95 17.65 L46.25 19.45 45.05 19.15 44.75 18.5 43.7 17.8 43.5 17.55 41.85 15.15 41.45 12.55 41.85 11.2 41.5 10.85 40.85 10.15 Q39.6 8.5 39.9 6.55 38.9 6.55 38.2 5.85 37.45 5.15 37.45 4.15 L37.95 3.6 39.2 3.35 42.65 4.95 42.55 6.65 42.25 7.95 43.25 8.6 Q45.05 10.65 44.15 13.3 L44.0 13.75 46.95 17.65 M-37.5 -33.1 L-35.35 -35.35 -34.8 -35.9 -34.35 -35.9 -33.15 -36.15 Q-31.0 -36.2 -30.05 -34.4 L-31.5 -32.85 -32.0 -32.05 -33.3 -31.75 -34.5 -33.2 -35.2 -33.25 -36.2 -33.3 -37.5 -33.1 M-24.7 -43.6 L-24.55 -43.7 -20.85 -44.1 -12.65 -43.8 -8.4 -42.85 -7.8 -44.9 -7.1 -45.0 -4.35 -44.95 0.15 -44.85 2.75 -44.8 9.6 -43.8 11.35 -42.4 Q14.8 -39.65 19.1 -38.6 L20.35 -38.3 Q20.85 -38.05 20.85 -37.65 L20.45 -36.4 17.9 -36.4 Q14.1 -36.75 10.7 -38.95 L7.15 -42.35 6.4 -42.2 5.85 -41.35 Q3.75 -38.5 0.25 -39.05 L-0.3 -39.4 Q-0.3 -40.3 0.1 -40.95 L1.0 -41.6 Q0.75 -41.8 0.55 -41.95 L0.4 -41.95 -5.65 -42.45 -3.0 -41.6 -2.85 -41.15 -3.0 -40.7 -3.65 -39.9 -4.8 -39.7 -7.25 -40.1 -7.85 -40.15 -12.1 -40.55 -13.95 -40.95 Q-13.95 -41.45 -14.6 -41.8 -15.3 -42.2 -16.25 -42.2 L-16.4 -42.2 -17.4 -42.25 -19.25 -42.05 -23.05 -41.2 -23.15 -41.2 -25.15 -41.35 -25.6 -41.75 -25.7 -42.9 -24.7 -43.6 M19.7 -30.0 L19.05 -29.3 Q17.6 -27.8 15.65 -27.65 L15.6 -27.65 13.7 -27.6 Q9.7 -27.5 5.75 -28.55 L1.95 -28.4 1.85 -30.6 -0.85 -30.65 -3.0 -29.85 -3.55 -29.5 -2.65 -27.25 Q-3.65 -26.1 -5.15 -26.85 L-6.2 -28.0 -5.2 -31.5 -3.8 -32.45 -3.75 -32.5 -1.8 -33.05 -0.55 -33.1 2.5 -33.65 6.65 -34.35 7.45 -34.4 8.8 -34.05 Q9.35 -33.75 9.35 -33.25 L9.35 -32.65 8.65 -32.2 7.95 -31.8 7.2 -31.6 6.3 -31.65 6.45 -31.15 8.45 -30.6 Q11.5 -30.1 14.5 -30.6 L16.45 -32.15 17.4 -32.15 18.85 -31.15 19.45 -30.8 19.7 -30.0 M17.7 -24.05 L19.0 -24.6 Q21.25 -25.25 23.2 -23.65 L23.0 -23.0 23.65 -22.8 28.2 -21.6 29.3 -21.15 31.7 -19.35 33.5 -16.5 32.75 -14.7 31.0 -13.4 28.65 -12.95 28.25 -12.9 27.8 -12.9 26.1 -12.9 Q22.5 -13.2 19.7 -14.9 L17.85 -16.2 15.6 -18.45 15.45 -20.6 17.35 -23.8 17.7 -24.05 M40.05 -15.2 L42.7 -20.2 40.55 -21.9 40.1 -22.25 38.55 -23.35 37.9 -23.8 34.65 -26.7 34.45 -27.25 34.85 -29.95 36.65 -28.85 37.95 -26.95 38.3 -26.7 45.1 -21.4 45.1 -19.95 43.0 -15.8 42.15 -10.0 41.95 -9.7 41.1 -8.7 40.05 -8.5 38.65 -9.0 38.55 -10.25 39.85 -11.4 40.05 -15.2 M11.45 -11.7 L11.95 -10.85 11.6 -10.1 10.45 -9.65 10.1 -9.0 Q8.7 -7.1 6.65 -8.1 L6.05 -8.4 5.5 -8.0 4.95 -7.8 4.35 -8.1 4.65 -11.4 4.8 -13.1 5.15 -14.9 8.7 -20.4 9.4 -20.0 Q11.95 -18.35 10.1 -15.65 L8.55 -12.4 9.3 -12.45 11.1 -11.95 11.45 -11.7 M-18.05 -33.65 L-16.6 -32.45 -17.65 -31.0 -23.35 -33.25 -24.45 -33.6 -26.25 -34.15 -27.45 -34.3 -28.35 -34.85 -28.4 -35.55 Q-28.25 -35.95 -27.7 -36.2 L-26.4 -36.45 -25.2 -36.3 -24.6 -36.2 -21.95 -35.5 -19.2 -34.3 -18.05 -33.65 M-26.55 1.85 L-24.55 0.35 -23.2 -1.15 Q-20.7 -4.2 -19.45 -8.1 L-18.95 -8.4 -18.55 -8.55 -18.1 -8.45 -16.6 -7.85 -17.5 -5.45 -15.45 -3.1 -14.65 -3.15 -13.35 -4.8 -12.85 -7.5 -12.65 -7.8 -11.3 -9.45 -11.35 -10.05 -10.3 -12.35 Q-9.55 -12.35 -9.0 -12.85 -8.5 -13.4 -8.5 -14.15 L-8.45 -14.5 -7.45 -15.55 -6.8 -16.15 -4.05 -15.75 -3.75 -14.1 -4.9 -11.75 -6.3 -10.3 -5.9 -9.6 -3.1 -4.25 -3.0 -3.45 Q-2.9 -1.8 -3.75 -0.3 -3.75 0.5 -4.35 1.05 -5.0 1.6 -5.85 1.6 L-6.6 1.7 -8.5 1.2 -9.5 0.05 -9.5 -1.45 -11.55 -2.85 -11.8 -2.4 -12.8 -1.3 -14.85 -0.6 -18.9 -2.7 -22.7 1.9 -23.35 2.6 -25.1 4.25 -24.25 5.7 -24.65 6.35 -26.2 6.9 -26.7 6.45 -27.45 5.25 -27.8 3.7 -26.55 1.85 M-16.65 22.5 L-14.3 21.4 Q-12.15 19.95 -9.95 21.1 -8.75 21.7 -8.3 22.75 L-12.75 23.55 -13.0 24.55 -13.25 25.25 Q-13.9 26.6 -15.2 27.3 L-15.8 27.55 -19.05 27.85 Q-19.7 27.85 -20.15 27.2 L-20.6 25.55 Q-20.6 24.8 -20.15 24.25 -19.7 23.7 -19.05 23.7 L-18.2 23.35 -16.65 22.5 M0.75 29.05 L0.65 27.9 Q0.55 25.45 1.85 23.3 L3.15 23.9 4.0 25.9 5.65 29.05 7.75 32.3 8.5 33.1 12.55 36.35 12.7 38.5 12.35 38.75 10.85 38.4 8.25 36.4 6.45 34.65 5.75 33.85 4.05 31.7 5.25 35.65 6.65 36.6 7.4 37.45 6.5 38.65 6.1 38.8 2.95 37.8 2.5 37.35 0.75 29.05 M24.0 29.45 L24.3 25.25 25.45 24.45 27.5 22.5 29.1 23.15 29.65 24.0 34.25 23.5 34.8 24.3 34.45 25.55 33.55 26.05 30.9 26.55 27.95 27.0 Q27.45 27.0 27.1 27.4 26.75 27.8 26.75 28.35 L26.25 33.45 25.55 33.8 24.35 33.25 24.0 29.45 M26.0 5.55 Q25.05 5.55 24.4 4.8 23.75 4.0 23.75 2.9 L23.75 2.3 23.0 2.1 22.8 2.05 19.75 0.05 18.85 -1.25 18.65 -3.3 19.1 -3.8 19.65 -3.95 22.7 -3.4 30.7 -0.35 31.5 0.0 31.6 0.9 30.95 1.7 28.25 1.05 28.95 2.3 28.3 3.65 27.85 3.8 34.2 6.75 36.4 7.95 38.5 9.65 37.35 11.0 34.75 9.75 32.55 8.7 26.0 5.55 M18.4 8.0 L18.3 8.45 15.9 9.15 14.25 9.05 Q11.8 8.6 10.05 6.8 L10.0 6.35 8.7 6.4 6.8 6.35 3.4 5.75 2.45 5.1 1.15 3.65 1.65 2.6 3.35 2.8 Q4.65 3.15 5.7 3.85 L7.75 3.9 8.65 3.9 Q10.4 3.45 11.85 2.35 L14.25 0.75 15.6 1.95 15.3 2.5 Q14.8 3.7 13.45 4.15 L13.05 4.3 12.75 5.7 14.6 6.45 18.3 7.15 18.4 8.0 M19.8 -20.35 L18.05 -20.4 18.0 -19.65 22.3 -16.65 22.35 -16.65 26.9 -15.85 28.3 -15.85 30.7 -16.15 29.75 -17.8 29.1 -18.25 28.6 -18.6 27.5 -19.15 25.05 -19.9 19.8 -20.35 M-6.05 -1.25 L-5.95 -1.6 -6.05 -1.9 -6.4 -2.05 -6.7 -1.9 -6.85 -1.6 -6.7 -1.25 -6.4 -1.15 -6.05 -1.25 M19.85 18.4 Q19.85 19.5 19.2 20.25 18.55 21.0 17.65 21.0 L16.95 21.75 Q19.1 23.2 18.65 25.8 L18.0 25.75 Q14.7 24.85 14.0 21.3 L15.15 19.55 15.85 18.95 14.8 18.45 12.9 17.5 9.7 15.75 9.35 15.55 8.2 14.75 7.4 13.8 Q6.6 12.75 6.5 11.45 L7.5 10.4 7.55 10.35 7.7 10.5 9.35 12.1 10.35 12.85 15.5 16.1 18.45 17.55 19.15 17.85 19.85 18.4" fill="#bfc0c1" fill-rule="evenodd" stroke="none"/>
  </g>
</svg>
