<?xml version="1.0" encoding="UTF-8" standalone="no"?>
<svg
   xmlns:dc="http://purl.org/dc/elements/1.1/"
   xmlns:cc="http://creativecommons.org/ns#"
   xmlns:rdf="http://www.w3.org/1999/02/22-rdf-syntax-ns#"
   xmlns:svg="http://www.w3.org/2000/svg"
   xmlns="http://www.w3.org/2000/svg"
   xmlns:xlink="http://www.w3.org/1999/xlink"
   xmlns:sodipodi="http://sodipodi.sourceforge.net/DTD/sodipodi-0.dtd"
   xmlns:inkscape="http://www.inkscape.org/namespaces/inkscape"
   height="128"
   width="128"
   version="1.1"
   id="svg125"
   sodipodi:docname="plane.svg"
   inkscape:version="0.92.3 (2405546, 2018-03-11)"
   viewBox="0 0 512 512">
  <metadata
     id="metadata129">
    <rdf:RDF>
      <cc:Work
         rdf:about="">
        <dc:format>image/svg+xml</dc:format>
        <dc:type
           rdf:resource="http://purl.org/dc/dcmitype/StillImage" />
        <dc:title></dc:title>
      </cc:Work>
    </rdf:RDF>
  </metadata>
  <sodipodi:namedview
     pagecolor="#ffffff"
     bordercolor="#666666"
     borderopacity="1"
     objecttolerance="10"
     gridtolerance="10"
     guidetolerance="10"
     inkscape:pageopacity="0"
     inkscape:pageshadow="2"
     inkscape:window-width="1406"
     inkscape:window-height="978"
     id="namedview127"
     showgrid="false"
     inkscape:zoom="5.6568543"
     inkscape:cx="60.702281"
     inkscape:cy="66.727609"
     inkscape:window-x="223"
     inkscape:window-y="174"
     inkscape:window-maximized="0"
     inkscape:current-layer="svg125" />
  <g
     transform="matrix(2.5606391,0,0,2.56,255.93601,256)"
     id="g113"
     style="">
    <use
       height="200"
       transform="translate(-99.95,-100)"
       width="199.95"
       xlink:href="#shape0"
       id="use111"
       x="0"
       y="0"
       style="" />
  </g>
  <defs
     id="defs123">
    <g
       id="shape0"
       transform="translate(99.95,100)">
      <path
         d="M 70.7,-70.75 Q 100,-41.45 100,0 100,41.4 70.7,70.7 L 64,76.9 Q 36.8,100 0.05,100 -32.15,100 -57,82.35 -64.15,77.25 -70.7,70.7 -100,41.4 -99.95,0 -100,-41.45 -70.7,-70.75 -64.15,-77.3 -57,-82.35 -32.15,-100 0.05,-100 q 36.75,0 63.95,23.1 3.45,2.9 6.7,6.15"
         id="path115"
         inkscape:connector-curvature="0"
         style="fill:url(#gradient0);fill-rule:evenodd;stroke:none" />
    </g>
    <radialGradient
       cx="0"
       cy="0"
       gradientTransform="scale(0.1238)"
       gradientUnits="userSpaceOnUse"
       id="gradient0"
       r="819.20001"
       spreadMethod="pad">
      <stop
         offset="0.0"
         stop-color="#51c451"
         id="stop118" />
      <stop
         offset="1.0"
         stop-color="#3aa53a"
         id="stop120" />
    </radialGradient>
  </defs>
  <g
     aria-label="N"
     transform="matrix(4,0,0,4,-4.2864574,0.70710678)"
     style="font-style:normal;font-variant:normal;font-weight:bold;font-stretch:normal;font-size:18.66666603px;line-height:1.25;font-family:'Liberation Sans';-inkscape-font-specification:'Liberation Sans Bold';letter-spacing:0px;word-spacing:0px;fill:#000000;fill-opacity:1;stroke:none"
     id="flowRoot127">
    <path
       d="m 67.404948,20.187129 -5.596354,-9.889323 q 0.164062,1.440104 0.164062,2.315104 v 7.574219 H 59.584635 V 7.3446814 h 3.071615 l 5.678385,9.9713536 q -0.164062,-1.376302 -0.164062,-2.50651 V 7.3446814 h 2.38802 V 20.187129 Z"
       style="fill:#ffffff"
       id="path4721" />
  </g>
  <g
     aria-label="S"
     transform="matrix(4,0,0,4,10.153647,13.435029)"
     style="font-style:normal;font-variant:normal;font-weight:bold;font-stretch:normal;font-size:18.66666603px;line-height:1.25;font-family:'Liberation Sans';-inkscape-font-specification:'Liberation Sans Bold';letter-spacing:0px;word-spacing:0px;fill:#000000;fill-opacity:1;stroke:none"
     id="flowRoot135">
    <path
       d="m 67.053385,114.4202 q 0,1.88672 -1.403646,2.88932 -1.394531,0.99349 -4.101562,0.99349 -2.470052,0 -3.873698,-0.875 -1.403646,-0.875 -1.804687,-2.65234 l 2.597656,-0.42838 q 0.264323,1.02083 1.029948,1.48567 0.765625,0.45573 2.123698,0.45573 2.816406,0 2.816406,-1.71354 0,-0.54688 -0.328125,-0.90234 -0.319011,-0.35547 -0.911459,-0.59245 -0.583333,-0.23698 -2.251302,-0.57422 -1.440104,-0.33724 -2.005208,-0.53776 -0.565104,-0.20964 -1.020833,-0.48307 -0.455729,-0.28256 -0.77474,-0.67448 -0.31901,-0.39193 -0.501302,-0.92058 -0.173177,-0.52864 -0.173177,-1.21224 0,-1.74088 1.303386,-2.66145 1.312499,-0.92969 3.809895,-0.92969 2.388021,0 3.582031,0.74739 1.203125,0.7474 1.549479,2.47006 l -2.60677,0.35547 q -0.200521,-0.82943 -0.820313,-1.2487 -0.610677,-0.41927 -1.759114,-0.41927 -2.442709,0 -2.442709,1.53125 0,0.5013 0.255209,0.82031 0.264323,0.31901 0.774739,0.54687 0.510417,0.21875 2.069011,0.55599 1.85026,0.39193 2.643229,0.72917 0.802083,0.32813 1.266927,0.77474 0.464844,0.4375 0.710937,1.05729 0.246094,0.61068 0.246094,1.41276 z"
       style="fill:#ffffff"
       id="path4715" />
  </g>
  <g
     aria-label="E"
     transform="matrix(4,0,0,4,8.4852817,-2.7042455)"
     style="font-style:normal;font-variant:normal;font-weight:bold;font-stretch:normal;font-size:18.66666603px;line-height:1.25;font-family:'Liberation Sans';-inkscape-font-specification:'Liberation Sans Bold';letter-spacing:0px;word-spacing:0px;fill:#000000;fill-opacity:1;stroke:none"
     id="flowRoot143">
    <path
       d="M 109.61198,71.097285 V 58.254838 h 10.09896 v 2.078125 h -7.41016 v 3.226562 h 6.85417 v 2.078125 h -6.85417 v 3.38151 h 7.78386 v 2.078125 z"
       style="fill:#ffffff"
       id="path4718" />
  </g>
  <g
     aria-label="W"
     transform="matrix(4,0,0,4,11.313708,-6.243308)"
     style="font-style:normal;font-variant:normal;font-weight:bold;font-stretch:normal;font-size:18.66666603px;line-height:1.25;font-family:'Liberation Sans';-inkscape-font-specification:'Liberation Sans Bold';letter-spacing:0px;word-spacing:0px;fill:#000000;fill-opacity:1;stroke:none"
     id="flowRoot151">
    <path
       d="m 17.288411,71.982051 h -3.190104 l -1.740885,-7.428385 q -0.319011,-1.3125 -0.537761,-2.74349 -0.21875,1.19401 -0.355469,1.822917 -0.136718,0.619791 -1.9414058,8.348958 H 6.3326822 L 3.0240885,59.139603 h 2.7252604 l 1.8593749,8.294271 0.4192708,2.005208 q 0.2552083,-1.266927 0.4921875,-2.415364 0.2460937,-1.157552 1.8229169,-7.884115 h 3.007812 l 1.622396,6.835938 q 0.191406,0.765624 0.647135,3.463541 l 0.227865,-1.057292 0.483073,-2.096354 1.549479,-7.145833 h 2.72526 z"
       style="fill:#ffffff"
       id="path4712" />
  </g>
</svg>
