<?xml version="1.0" encoding="UTF-8" standalone="no"?>
<svg
   xmlns:dc="http://purl.org/dc/elements/1.1/"
   xmlns:cc="http://creativecommons.org/ns#"
   xmlns:rdf="http://www.w3.org/1999/02/22-rdf-syntax-ns#"
   xmlns:svg="http://www.w3.org/2000/svg"
   xmlns="http://www.w3.org/2000/svg"
   xmlns:xlink="http://www.w3.org/1999/xlink"
   xmlns:sodipodi="http://sodipodi.sourceforge.net/DTD/sodipodi-0.dtd"
   xmlns:inkscape="http://www.inkscape.org/namespaces/inkscape"
   height="17.0px"
   width="36.0px"
   version="1.1"
   id="svg112"
   sodipodi:docname="white-stickfigure.svg"
   inkscape:version="0.92.3 (2405546, 2018-03-11)">
  <metadata
     id="metadata116">
    <rdf:RDF>
      <cc:Work
         rdf:about="">
        <dc:format>image/svg+xml</dc:format>
        <dc:type
           rdf:resource="http://purl.org/dc/dcmitype/StillImage" />
      </cc:Work>
    </rdf:RDF>
  </metadata>
  <sodipodi:namedview
     pagecolor="#ffffff"
     bordercolor="#666666"
     borderopacity="1"
     objecttolerance="10"
     gridtolerance="10"
     guidetolerance="10"
     inkscape:pageopacity="0"
     inkscape:pageshadow="2"
     inkscape:window-width="2560"
     inkscape:window-height="1380"
     id="namedview114"
     showgrid="false"
     inkscape:zoom="57.166667"
     inkscape:cx="18"
     inkscape:cy="8.5"
     inkscape:window-x="0"
     inkscape:window-y="31"
     inkscape:window-maximized="1"
     inkscape:current-layer="svg112" />
  <g
     transform="matrix(-1,0,0,1,18,8.5)"
     id="g99">
    <use
       height="17"
       transform="translate(-18,-8.5)"
       width="36"
       xlink:href="#shape0"
       id="use97"
       x="0"
       y="0" />
  </g>
  <defs
     id="defs110">
    <g
       id="shape0"
       transform="matrix(1.0, 0.0, 0.0, 1.0, 18.0, 8.5)">
      <path
         d="M18.0 -8.5 L18.0 8.5 -18.0 8.5 -18.0 -8.5 18.0 -8.5"
         fill="#35ff72"
         fill-opacity="0.0"
         fill-rule="evenodd"
         stroke="none"
         id="path101" />
      <path
         d="M7.35 -1.9 Q7.95 -2.6 8.85 -2.6 9.75 -2.6 10.4 -1.9 11.0 -1.15 11.0 -0.1 11.0 0.95 10.4 1.65 9.75 2.4 8.85 2.4 7.95 2.4 7.35 1.65 6.7 0.95 6.7 -0.1 6.7 -1.15 7.35 -1.9"
         fill="#ffffff"
         fill-rule="evenodd"
         stroke="none"
         id="path103" />
      <path
         d="M-10.0 -3.9 L-0.45 -0.15 -0.6 -0.1 -10.0 3.85 M4.1 -0.1 L2.5 -4.45 M7.35 -1.9 Q7.95 -2.6 8.85 -2.6 9.75 -2.6 10.4 -1.9 11.0 -1.15 11.0 -0.1 11.0 0.95 10.4 1.65 9.75 2.4 8.85 2.4 7.95 2.4 7.35 1.65 6.7 0.95 6.7 -0.1 6.7 -1.15 7.35 -1.9 M4.1 0.6 L2.5 4.55"
         fill="none"
         stroke="#ffffff"
         stroke-linecap="round"
         stroke-linejoin="round"
         stroke-width="2.0"
         id="path105" />
      <path
         d="M-0.6 -0.1 L4.1 -0.1 M5.8 -0.1 L4.1 -0.1"
         fill="none"
         stroke="#ffffff"
         stroke-linecap="round"
         stroke-linejoin="round"
         stroke-width="2.0"
         id="path107" />
    </g>
  </defs>
</svg>
