<?xml version="1.0" standalone="no"?>
<!DOCTYPE svg PUBLIC "-//W3C//DTD SVG 20010904//EN"
 "http://www.w3.org/TR/2001/REC-SVG-20010904/DTD/svg10.dtd">
<svg version="1.0" xmlns="http://www.w3.org/2000/svg"
 width="102.000000pt" height="96.000000pt" viewBox="0 0 102.000000 96.000000"
 preserveAspectRatio="xMidYMid meet">
<metadata>
Created by potrace 1.16, written by Peter Selinger 2001-2019
</metadata>
<g transform="translate(0.000000,96.000000) scale(0.100000,-0.100000)"
fill="#000000" stroke="none">
<path d="M101 901 c-29 -22 -15 -34 32 -26 25 5 39 1 57 -13 23 -19 25 -27 23
-91 -2 -42 1 -71 7 -71 6 0 10 -6 10 -12 0 -24 60 -48 118 -48 49 0 59 -4 80
-27 20 -23 23 -35 17 -68 -13 -86 58 -159 133 -134 27 9 37 9 40 0 2 -6 10
-11 17 -11 21 0 47 -49 44 -83 -6 -59 9 -91 50 -109 21 -10 42 -18 47 -18 6 0
23 -14 39 -30 41 -43 24 -57 -47 -41 -118 26 -132 29 -144 24 -10 -4 -10 -9
-2 -23 8 -12 29 -20 65 -25 29 -3 55 -10 58 -15 2 -4 26 -11 52 -15 27 -4 53
-11 58 -15 10 -8 64 -14 98 -11 18 1 25 45 8 55 -5 4 -12 30 -16 59 -4 28 -11
57 -15 62 -4 6 -11 30 -14 55 -4 25 -11 54 -16 65 -4 11 -11 28 -14 37 -3 11
-11 15 -21 12 -9 -4 -14 -12 -11 -19 2 -6 7 -37 11 -69 4 -31 11 -59 16 -62
11 -7 12 -51 1 -58 -5 -3 -23 8 -41 25 -18 16 -47 33 -64 36 -51 10 -66 33
-64 102 2 56 0 63 -27 86 -24 21 -39 25 -93 25 -35 0 -63 4 -63 10 0 6 -6 10
-14 10 -24 0 -30 21 -28 87 2 35 -1 63 -6 63 -6 0 -12 8 -14 18 -8 31 -72 54
-124 46 -66 -10 -84 13 -84 104 0 63 -2 71 -26 88 -14 10 -32 25 -39 32 -19
18 -66 14 -94 -7z"/>
</g>
</svg>
